<?xml version="1.0" encoding="UTF-8" standalone="no"?>
<!DOCTYPE svg PUBLIC "-//W3C//DTD SVG 1.1//EN"
"http://www.w3.org/Graphics/SVG/1.1/DTD/svg11.dtd">
<svg viewBox="0 0 909 1286" version="1.1" xmlns="http://www.w3.org/2000/svg" xmlns:xlink="http://www.w3.org/1999/xlink">
<defs>
<clipPath id="c0_11"><path d="M0,1286.2V0H909.4V1286.2Z"/></clipPath>
<style type="text/css"><![CDATA[
.g0_11{
fill: #FFFFFF;
}
.g1_11{
fill: #D1D3D4;
}
.g2_11{
fill: #0A364A;
}
.g3_11{
fill: none;
stroke: #D1D3D4;
stroke-width: 21.653;
stroke-linecap: butt;
stroke-linejoin: miter;
stroke-miterlimit: 22;
}
.g4_11{
fill: none;
stroke: #D1D3D4;
stroke-width: 19.322;
stroke-linecap: butt;
stroke-linejoin: miter;
stroke-miterlimit: 22;
}
.g5_11{
fill: #D6D6CE;
}
.g6_11{
fill: #4A4A4A;
}
.g7_11{
fill: #767777;
}
.g8_11{
fill: #212121;
}
.g9_11{
fill: #9C9C9C;
}
.ga_11{
fill: #6D1821;
}
.gb_11{
fill: #962730;
}
.gc_11{
fill: #BBBDC0;
}
]]></style>
</defs>
<path fill-rule="evenodd" d="M909.4,0H0V1286.2H909.4Z" class="g0_11"/>
<g clip-path="url(#c0_11)">
<path fill-rule="evenodd" d="M785.4,-59.3h-938V88.8h938Z" class="g1_11"/>
<path fill-rule="evenodd" d="M938.9,-11H874.8V1297.3h64.1Z" class="g2_11"/>
<path d="M751.8,-170.4c-90.3,0,-163.5,73.2,-163.5,163.5c0,90.2,73.2,163.4,163.5,163.4c90.3,0,163.4,-73.2,163.4,-163.4c0,-90.3,-73.1,-163.5,-163.4,-163.5Z" class="g3_11"/>
<path fill-rule="evenodd" d="M751.8,-170.4c-90.3,0,-163.5,73.2,-163.5,163.5c0,90.2,73.2,163.3,163.5,163.3c90.3,0,163.4,-73.1,163.4,-163.3c0,-90.3,-73.1,-163.5,-163.4,-163.5Z" class="g2_11"/>
<path d="M751.8,-152.8c-80.6,0,-145.9,65.3,-145.9,145.9c0,80.4,65.3,145.7,145.9,145.7c80.5,0,145.8,-65.3,145.8,-145.7c0,-80.6,-65.3,-145.9,-145.8,-145.9Z" class="g4_11"/>
<path fill-rule="evenodd" d="M751.8,-152.8c-80.6,0,-145.9,65.3,-145.9,145.9c0,80.4,65.3,145.7,145.9,145.7c80.5,0,145.8,-65.3,145.8,-145.7c0,-80.6,-65.3,-145.9,-145.8,-145.9Z" class="g2_11"/>
</g>
<image preserveAspectRatio="none" x="639" y="28" width="61" height="55" xlink:href="img/1.png"/>
<path fill-rule="evenodd" d="M698.4,61.9H714V53.5c0,-.5,2.7,-2,3.2,-2.3c1.1,-.7,2.2,-1.6,3.4,-2.2l2.4,2.8c.2,.2,.4,.4,.6,.7l7.3,8.9c.7,.8,1.6,.5,3.5,.5h16.2c-.4,-.5,-.7,-.9,-1.1,-1.3l-2.9,-3.3c-.2,-.2,-.3,-.3,-.6,-.6l-4.5,-5.1c-1,-1.3,-3.6,-3.9,-4.6,-5.1c-.7,-1,-4.1,-4.5,-4.5,-5.2c.4,-.1,6.5,-4.4,7.3,-5l7.2,-5c.5,-.4,1.8,-1.2,2.1,-1.6H728.2q-.2,.1,-.5,.3c-.3,.2,-.5,.4,-.8,.7c-3.6,2.8,-7.6,6.1,-11.2,8.8c-.6,.4,-1.1,.9,-1.7,1.3V29.7H698.4Z" class="g0_11"/>
<path fill-rule="evenodd" d="M776.5,61.9h43.6V53.5H792v-4h21.4c.3,0,.4,-.1,.4,-.4V41.8c0,-.3,-.1,-.4,-.4,-.4H792V37.7h26.7v-8H776.5Z" class="g0_11"/>
<path fill-rule="evenodd" d="M820.8,37.9h14.4v24h15.6v-24h14.3V29.7H820.8Z" class="g0_11"/>
<path fill-rule="evenodd" d="M752.3,61.9h15.6V29.7H752.3Z" class="g0_11"/>
<path fill-rule="evenodd" d="M777.3,78.3h2.6V72l2.2,4.8c.8,1.7,.1,1.5,3.3,1.5c.3,0,.4,-.1,.4,-.4V67.1h-2.7v6.1q0,-.1,0,-.1c0,0,-.1,-.1,-.1,-.1l-2.4,-5.9h-3.3Z" class="g0_11"/>
<path fill-rule="evenodd" d="M847.5,78.3h2.6V72l2.2,4.8c.8,1.7,.1,1.5,3.3,1.5c.3,0,.4,-.1,.4,-.4V67.1h-2.7v6.1q0,-.1,0,-.1l-.3,-.7c-.2,-.3,-.2,-.4,-.4,-.7l-1.8,-4.6h-3.3Z" class="g0_11"/>
<path fill-rule="evenodd" d="M713.5,71.7c-1,.2,-1.3,.1,-2.5,.1V69.9c1,0,3.4,-.2,2.5,1.8Zm-5.3,6.2c0,.6,.8,.4,2.4,.4c.7,0,.4,-1.5,.4,-3.4h1.9c.8,0,.6,2.5,.8,3.4h3c-.1,-.5,-.2,-1,-.3,-1.4c0,-.5,.1,-1,0,-1.6c-.2,-1.9,0,-1.3,-.8,-2.4c.3,-.5,.5,-.5,.8,-1.1c.4,-1.2,.4,-3,-.4,-3.9c-.4,-.6,-1.3,-.8,-2.3,-.8h-5.5Z" class="g0_11"/>
<path fill-rule="evenodd" d="M697.9,72.2c0,3.1,.7,6.3,4.5,6.3c2.1,0,2.5,-.7,3.1,-1.2l.3,1H707V71.8h-3.5c-.6,0,-.4,.9,-.4,2.6h1.1c-.2,1.9,-3.4,2.1,-3.4,-1.2c0,-5.1,3,-3.9,3.1,-2.3H707c-.2,-1,-.3,-2,-1.3,-2.9c-2.1,-2,-7.8,-2,-7.8,4.2Z" class="g0_11"/>
<path fill-rule="evenodd" d="M786.9,70.1c0,1.5,.2,2.8,1.9,3.5c1.4,.5,3.5,.2,3.5,1.4c0,.9,-2.1,1.1,-2.2,-.2h-3.4c.1,2.7,1.9,3.6,3.7,3.7h1.1c1.2,0,2.2,-.4,2.7,-.7c1.8,-1.4,2,-5.6,-.8,-6.4c-.6,-.2,-1.5,-.4,-2,-.5c-.9,-.2,-1.6,-.2,-1.6,-1c0,-.6,2.1,-1,2.2,.4h3.2c0,-3,-2.3,-3.5,-4.7,-3.5c-2.2,0,-3.6,1.1,-3.6,3.3Z" class="g0_11"/>
<path fill-rule="evenodd" d="M857.1,70.1c0,1.5,.2,2.8,1.9,3.5c1.4,.5,3.4,.2,3.4,1.4c0,.9,-2,1.1,-2.1,-.2h-3.4c.1,2.7,1.9,3.6,3.7,3.7h1.1c1.1,0,2.2,-.4,2.7,-.7c1.8,-1.4,2,-5.6,-.8,-6.4c-1.9,-.6,-3.6,-.5,-3.6,-1.5c0,-.6,2.1,-1,2.2,.4h3.2c0,-3,-2.3,-3.5,-4.7,-3.5c-2.2,0,-3.6,1.1,-3.6,3.3Z" class="g0_11"/>
<path fill-rule="evenodd" d="M755.3,75.6c-2,0,-1.8,-2.3,-1.8,-3.5c0,-3.2,3.4,-3,3.4,-.1c0,1.1,.1,3.6,-1.6,3.6Zm.1,2.9h-.3c-1.4,0,-2.7,-.6,-3.3,-1.4c-1.2,-1.5,-1.2,-3.2,-1.2,-5c0,-2.9,1.5,-5.3,4.3,-5.3c4.2,0,5,2.7,5,6.4c0,3.8,-2.3,5.3,-4.5,5.3Z" class="g0_11"/>
<path fill-rule="evenodd" d="M723.7,72.5c0,1.3,-.2,3.1,-1.8,3.1c-1.9,0,-2,-3.4,-1.3,-4.9c.1,-.4,.4,-.7,.8,-.9c1.6,-.5,2.3,1,2.3,2.7Zm-1.2,6h-.9c-.5,0,-1.1,-.1,-1.7,-.4c-2.6,-1,-2.5,-4.2,-2.5,-6.4c0,-2.8,1.6,-4.9,4.4,-4.9c3.8,0,4.8,2.5,4.8,6.2c0,3.5,-1.8,5.3,-4.1,5.5Z" class="g0_11"/>
<path fill-rule="evenodd" d="M840.1,73.2v-1c0,-3.4,3.4,-3.2,3.4,-.1c0,1.3,.1,3.5,-1.8,3.5c-1,0,-1.6,-1.3,-1.6,-2.4Zm-2.9,-1c0,3.1,.7,6.3,4.5,6.3c1.5,0,2.8,-.5,3.5,-1.3c1.9,-2.4,2.3,-10.4,-3.2,-10.4c-3.2,0,-4.8,2,-4.8,5.4Z" class="g0_11"/>
<path fill-rule="evenodd" d="M816.1,72.9c0,2.8,.7,5.6,4,5.6c2.9,0,4.2,-2,4.2,-4.9V67.1h-2.7v5.3c0,1.5,-.1,3,-1.5,3c-1.7,0,-1.2,-3.7,-1.2,-6.1c0,-2.7,.6,-2.2,-2.8,-2.2Z" class="g0_11"/>
<path fill-rule="evenodd" d="M727.7,74c0,2.9,1.7,4.3,3.5,4.5h1c1.3,-.1,2.5,-.8,3,-1.9c1,-1.9,.7,-7,.7,-9.5h-2.8c0,1.5,.2,6.5,-.2,7.6c-.4,1,-2.5,1.6,-2.5,-1.7V67.1h-2.7Z" class="g0_11"/>
<path fill-rule="evenodd" d="M742.4,71.7c-1,.2,-1.2,.1,-2.3,.1V69.5c2.5,0,2.4,0,2.4,1.5c0,.2,-.1,.6,-.1,.7Zm-5.1,6.2c0,.6,.8,.4,2.4,.4c.3,0,.4,-.1,.4,-.4V74.4c1.7,0,3.6,.2,4.7,-1c1.4,-1.7,1.2,-6.3,-2.3,-6.3h-5.2Z" class="g0_11"/>
<path fill-rule="evenodd" d="M760.9,78.3h2.7V74.1h3.5c0,-3.5,.8,-2.8,-3.5,-2.8V69.9h4.2V67.1h-6.9Z" class="g0_11"/>
<path fill-rule="evenodd" d="M795.8,69.9h2.5v8.4H801V69.9h2.6V67.1h-7.8Z" class="g0_11"/>
<path fill-rule="evenodd" d="M824.9,69.9h2.6v8.4h2.7V69.9h2.5V67.1h-7.8Z" class="g0_11"/>
<path fill-rule="evenodd" d="M807.6,67.5v2.4h2.5v8c0,.6,1,.4,2.7,.4v-8c0,-.6,.9,-.4,2.6,-.4V67.1H808c-.3,0,-.4,.1,-.4,.4Z" class="g0_11"/>
<path fill-rule="evenodd" d="M833.4,78.3h2.7V67.1h-2.7Z" class="g0_11"/>
<path fill-rule="evenodd" d="M773.2,77.9c0,.3,.1,.4,.4,.4h2.3V67.1h-2.7Z" class="g0_11"/>
<path fill-rule="evenodd" d="M804.2,77.9c0,.3,.1,.4,.4,.4h2.3V67.1h-2.7Z" class="g0_11"/>
<path fill-rule="evenodd" d="M596.5,1031.6c2,-2.9,1,-4.8,2,-8.7c0,-4.9,0,-9.7,-2.9,-13.6c-3.9,.9,-2,-1,-3.9,3.9c1.9,0,3.9,0,4.8,8.7l-.9,-1.9c0,0,-2,-3,-2,-3.9v3.9c0,-2,0,-3,-1.9,-3c-7.8,-2.9,-3.9,1,-3.9,3l7.8,.9c-1,2.9,.9,6.8,-5.9,2.9c3,0,2,0,3.9,1c-1.9,2,-3.9,2,-4.8,4.9c0,0,-1,4.8,-2,5.8c4.9,1,1,-1,3.9,1.9q2.9,-1.9,3.9,-3.8c-2.9,2.9,-2.9,1.9,-2.9,1.9c-1,0,1.9,1.9,-2,0c1,-1.9,3,-2.9,4.9,-5.8c0,.9,1.9,0,0,3.9c1,-2,1,-1,1.9,-2ZM581,1018c-5.8,2,-6.8,2.9,-10.7,-1.9c-1,-1,0,-1,1,-4.9q-1,-1,-2.9,-1c-1,3,-1,2,-2.9,4.9c-1,1,-2,2.9,-3,4.9c-4.8,0,-8.7,0,-12.6,-1l-.9,-1l-2,-1c-1.9,0,-1,0,-1.9,-.9c-1,-2,-2,.9,0,-2c-7.8,-.9,-11.7,0,-17.5,-1.9c1,-1,0,0,3.9,0c2.9,0,1.9,0,2.9,-1v-1c1.9,-2.9,1,-1.9,-1,-2.9c1,0,2,1,2,1c2.9,-1,3.8,-1.9,5.8,-3.9c2.9,-1,2.9,-1.9,3.9,-4.8c-1,.9,-1,1.9,-2.9,2.9c-3.9,2.9,-3.9,.9,-10.7,0H391.6c2.9,4.8,2.9,3.9,6.8,8.7c-2.9,2,-5.8,0,-7.8,-2.9l-1,2.9c-.9,0,-.9,-1,-1.9,-1c-1,0,0,0,-1,0h-1.9c-5.8,-.9,-4.9,-.9,-5.8,-1.9c0,2.9,0,1,-1,1.9q0,-.9,-1,-.9q0,-1,-1,-1c0,-1.9,1,-1,-.9,-1c0,-1.9,.9,-.9,-1,-.9c-1,-4.9,-11.7,-13.6,-12.6,-15.6c-1,-2.9,2.9,-2.9,.9,-3.9c-1.9,2.9,1,1,-2.9,2L348.8,973.3q-.9,0,-.9,0l5.8,4.9q-1,-2.9,-2.9,-4.9q-1,-.9,-2,-1.9q-.9,-1,-1.9,-2c0,1,1,3.9,-1.9,-.9c0,1.9,.9,.9,1.9,1.9L345,967.5c-1,0,0,2.9,-2,-1.9c1,3.8,0,0,2,1.9l-2,-2.9c-1.9,1.9,1,1,-1,0c-.9,-1,1,0,1,-1l-1,-1.9c-1.9,2.9,1,2.9,-.9,.9c-1,-1.9,0,-.9,.9,-.9c0,-3.9,0,-2.9,-.9,-3.9l-2,2.9c0,3.9,2.9,6.8,1,5.8c-3.9,-.9,1,1,-1.9,-1.9c-7.8,12.6,-3,10.7,-1,13.6c-2,-1,-9.7,-4.9,-11.7,-4.9l-1.9,1c2.9,4.9,6.8,4.9,12.6,6.8c-1.9,0,-2.9,0,-3.9,0c0,4.9,-.9,4.9,-1.9,6.8l-1,2.9c2,9.7,1,-1,0,7.8l1,3.9c-7.8,0,-9.7,1.9,-10.7,8.7c-1,5.8,-2.9,10.7,-2.9,15.6c3.9,-6.8,2.9,-14.6,6.8,-21.4c3.9,0,1,0,3.9,1c.9,0,1.9,0,1.9,.9h1c0,-3.9,1,-1.9,-2,-2.9c2,0,3.9,1,4.9,2c0,0,1,0,1,0l1.9,-2c0,-1.9,0,0,1,-2.9c1,-3.9,0,0,1,-1.9l.9,-3.9h1c3.9,3.9,6.8,4.8,10.7,8.7l1,2l.9,1.9h1l1,2.9l.9,2l2,4.8v-1.9c1,14.5,1.9,11.6,5.8,12.6c2.9,-8.7,-1,-21.4,-4.8,-28.2C348.8,987.9,348.8,990.8,342,986c1,-3.9,2,-7.8,3.9,-9.8c3.9,1,5.9,3.9,7.8,6.8c3.9,5.9,17.5,19.5,18.5,23.4c.9,.9,0,0,1.9,0q-1,1.9,1,.9q-1,2,.9,1c-.9,1.9,-.9,1,1,1c0,1.9,-1,1.9,1,.9c1.9,5.9,2.9,2,7.8,5.9l-5.9,-1c0,0,-.9,0,-.9,0l-1,1c-2.9,1.9,-3.9,.9,-7.8,.9c1,1,0,0,2,1c0,1,.9,1,1.9,1c3.9,1.9,10.7,1.9,14.6,1.9c6.8,1,14.5,0,21.3,0H517.9c7.7,0,19.4,-1.9,21.3,0c-20.4,4.9,-55.3,2,-79.6,2.9c-22.4,0,-60.2,1,-80.6,-1.9c.9,5.8,-1,1,2.9,4.9l5.8,4.8c7.8,4.9,38.9,2.9,48.6,2.9c22.3,0,46.6,1,68.9,0v-7.7c2,.9,1,0,3,3.8l.9,1c1,-1,1,-1.9,2,-1.9l.9,-2c0,2.9,-.9,1,1,4.9c-5.8,0,-2.9,-1,-4.8,0c3.8,1.9,-1,7.8,0,11.6l.9,-.9c1,-2.9,1,-4.9,2,-8.8c5.8,1,14.5,0,21.3,0c13.6,0,9.8,-3.9,14.6,0c0,0,0,1,0,1c0,0,1,0,1,0c-1,-3.9,-1,-1,2.9,-1.9c0,0,6.8,0,6.8,0l9.7,-1c9.7,3.9,11.7,-3.9,11.7,3.9l.9,-3.9c2.9,2.9,2,3.9,5.9,3.9c.9,-2,3.8,-9.7,.9,-12.7L582,1020c0,0,0,-1,0,-1c0,0,-1,0,-1,0q0,-1,0,-1Zm3.9,-1H582c1.9,1,1.9,2,2.9,0Zm-2,11.7c-2.9,1.9,-21.3,1.9,-23.3,0c1,-1,19.5,-1,23.3,0Zm-188.4,-2.9c2.9,2.9,1.9,1,1.9,4.8c-4.8,1,-7.7,-1.9,-7.7,-6.8c3.9,0,2.9,-.9,5.8,2Z" class="g5_11"/>
<path fill-rule="evenodd" d="M345.9,925.7c2,3.9,-.9,7.8,-2.9,18.5c0,0,-1,1,-1,1v.9c-3.8,0,-5.8,-1.9,-8.7,-3.9c1.9,3.9,4.9,4.9,8.7,5.9l-.9,9.7c.9,1,.9,0,.9,3.9l1,1.9v1l2,2.9l1.9,2.9v-1q1,1,1.9,2q1,1,2,1.9q1.9,2,2.9,4.9c3.9,1.9,1,2.9,5.8,3.9l2,-2.9h-1c-8.7,-11.7,-1,2.9,-12.6,-11.7C343,962.6,341.1,952.9,345,948.1h5.8h-1l-6.8,-1l4.9,-14.6l.9,-4.8c2,0,3.9,0,5.9,-1c2.9,-1,.9,0,2.9,-3.9c-1,-9.7,-3.9,3.9,2.9,-23.3c1.9,-7.8,4.9,-15.5,6.8,-23.3c2.9,-12.6,36.9,-138.9,37.9,-146.7v-1.9c-7.8,3.8,-6.8,.9,-20.4,-1l2.9,1.9l1,1c0,0,.9,1,1.9,1.9c-3.9,-2.9,-1.9,-2.9,-5.8,-2.9c0,0,-1,1,1.9,2c-2.9,0,-3.9,-2,-5.8,-3.9l1,1q.9,0,.9,0c3,.9,0,.9,2,0c-4.9,-3,-3.9,-2,-6.8,-8.8l3.9,1c-1,2.9,-2,1.9,.9,1c0,-2,1,-1,-.9,-1v-1c0,0,-1,-1,-1,-1l-1,-.9C377,714,376,714,373.1,714l-.9,1.9c0,0,0,1,0,1.9c1.9,1,0,0,2.9,0H378c-1,1,-2,1,-2.9,2v1l-1,3.8c1.9,-1.9,1,0,1,-3.8l1.9,4.8c-1,0,-2.9,0,-3.9,1c-1.9,1.9,-.9,0,-1.9,2.9c1.9,0,2.9,-1,4.8,-1l2,1c1.9,0,-1,-1,1,0c4.8,3.9,4.8,4.9,11.6,4.9l-1,1.9l-.9,1c0,.9,-1,-2,0,.9c0,2,0,0,.9,0c1,2,0,3.9,0,7.8c0,-4.8,0,-3.9,-1.9,-5.8c1,7.8,-3.9,26.2,-8.7,32c-3,-3.8,-5.9,-5.8,-9.8,-9.7c-2.9,-3.9,-5.8,-7.7,-7.7,-12.6h-2c2.9,7.8,6.8,11.7,11.7,17.5c5.8,6.8,9.7,4.8,6.8,17.5L345,909.2c-3,11.7,-3,2,-5.9,9.7l2,-1.9c-1,3.9,2.9,2.9,6.8,6.8Z" class="g6_11"/>
<path fill-rule="evenodd" d="M545.1,1014.1c-2,2.9,-1,0,0,2c.9,.9,0,.9,1.9,.9h2c.9,-.9,0,-.9,1.9,-.9c1.9,-1,0,-1,1,0q-2,-1,-2,.9c2,0,2,1,2,-.9c2.9,0,.9,.9,1.9,-1c1.9,0,1,1,1,-1c-2,0,-2,-.9,-1,1l-1.9,-1c1.9,0,1.9,-.9,2.9,-.9c1.9,0,0,-1,1.9,0l1,.9c-1,-1.9,1,-1.9,-1,-1.9c5.8,-2,4.9,-2.9,8.8,-6.8l.9,1.9c1,1,-.9,1,2,1c4.8,0,2.9,0,4.8,-2.9c4.9,-1,7.8,-1,13.6,-1c2.9,-1,1,2,1,-1c0,-1.9,-8.7,-1.9,-9.7,-1.9c-5.8,1,-7.8,2.9,-11.7,3.9c1,-1,0,0,1,-1c6.8,-4.8,23.3,-6.8,33,2.9c3.9,4.9,3.9,3.9,5.9,10.7c2.9,12.6,-5.9,23.3,-14.6,27.2c-11.7,4.9,-27.2,0,-32.1,-7.8q-.9,0,0,-1.9l-1.9,-1.9c0,0,-6.8,0,-6.8,0c-3.9,.9,-3.9,-2,-2.9,1.9c5.8,6.8,1,6.8,10.7,11.7c8.7,4.8,2.9,3.8,2.9,4.8c0,0,-1,-1,.9,0c1,1,0,1,1,1c6.8,2.9,29.2,2.9,35,0q2.9,-2,0,-2.9l-1,-1c3.9,-1.9,9.7,-6.8,11.7,-9.7c2.9,-2.9,5.8,-8.8,6.8,-14.6c.9,-6.8,0,-13.6,-2.9,-18.4c-3.9,-4.9,-4.9,-5.9,-10.7,-9.8c-9.7,-5.8,-23.3,-7.7,-35,-2.9c-19.4,7.8,-15.5,16.5,-22.3,20.4Z" class="g6_11"/>
<path fill-rule="evenodd" d="M338.2,1004.4v-4.8c-1,1.9,0,-2,-1,1.9c-1,2.9,-1,1,-1,2.9c-1,4.9,0,-1,-1.9,3.9c-1,3.9,-1,1.9,-1,5.8c4.9,2.9,2.9,3.9,3.9,4.9l-2.9,-2c-2,-.9,-2.9,2,-3.9,4.9c-1,2.9,-2.9,13.6,-10.7,8.7c-5.8,-1.9,-4.9,-4.8,-3.9,-12.6c2,-4.8,2.9,-11.6,3.9,-16.5q-1,0,-1,0l-1.9,1c-6.8,2.9,-2.9,0,-10.7,4.8l7.8,-3.9c1.9,-.9,2.9,-.9,4.8,-.9c-1.9,-2,2.9,-3.9,-6.8,-1c-2.9,1,-11.6,6.8,-11.6,10.7c2.9,-1,0,1,2.9,-2c2.9,-2.9,1,0,1.9,-2.9c1,2,1,-.9,-1.9,3.9c-2.9,2,-2,2,-2.9,4.9c0,-3.9,1.9,0,-1,-4.9c-1,5.8,-6.8,16.5,2.9,27.2c8.8,7.8,20.4,11.7,33,4.9c9.8,-3.9,16.6,-15.6,10.7,-29.2c-1.9,-4.8,-2.9,-7.7,-7.7,-9.7Z" class="g7_11"/>
<path fill-rule="evenodd" d="M293.5,1038.4q.9,2,1.9,3.9c2.9,2.9,1,1,2.9,1.9q0,1,2,0q-1,2,.9,1c-.9,2,-.9,1,1,2c0,-2,1,-2,-1,-2q0,-1,-.9,-1c0,-1.9,0,-.9,-2,0c-.9,-.9,-.9,-1.9,-1.9,-2.9c-2,-1.9,-1,-.9,-2.9,-2.9Zm44.7,-34c4.8,2,5.8,4.9,7.7,9.7c5.9,13.6,-.9,25.3,-10.7,29.2c-12.6,6.8,-24.2,2.9,-33,-4.9c-9.7,-10.7,-3.9,-21.4,-2.9,-27.2c2.9,4.9,1,1,1,4.9c.9,-2.9,0,-2.9,2.9,-4.9c2.9,-4.8,2.9,-1.9,1.9,-3.9c-.9,2.9,1,0,-1.9,2.9c-2.9,3,0,1,-2.9,2c0,-3.9,8.7,-9.7,11.6,-10.7c9.7,-2.9,4.9,-1,6.8,1c-1.9,0,-2.9,0,-4.8,.9l-7.8,3.9c7.8,-4.8,3.9,-1.9,10.7,-4.8l1.9,-1h1l1.9,-9.7c-3.8,-1,-8.7,0,-11.6,1.9c8.7,2,-8.8,0,-8.8,2.9v1c-7.7,1,-19.4,20.4,-9.7,36.9c13.6,20.4,38.9,22.4,54.4,8.8c2.9,-2.9,1,0,2,-3.9c2.9,-5.8,6.8,-6.8,5.8,-14.6c0,0,0,-1,0,-1v-1.9c0,0,2.9,-4.9,-2.9,-13.6c-3.9,-5.8,-6.8,-8.7,-11.7,-8.7l1,2.9q0,.9,0,1.9q1,1,1,1c.9,1,4.8,5.8,5.8,7.8c-1.9,-3.9,-3.9,-7.8,-8.7,-8.8Zm-47.6,30.1q0,2,1.9,1q-1,1.9,0,1.9v-1.9c0,-1.9,0,-1,-1.9,-1Zm-1,-1.9l-1,-2.9c1,3.9,0,1.9,1,2.9Zm-1,-2.9l-1,-2.9c0,3.8,0,1.9,1,2.9Zm0,-19.5c-1,1,0,-.9,-1,3c2,-2,2,0,1,-3m0,0c2,-.9,1,0,1,-1.9Zm2,-4.8c1.9,0,.9,1,.9,-1c-1.9,0,-.9,-1,-.9,1Zm2.9,-3.9c0,0,-1,0,-1,0c0,0,0,1,0,1l-1,1.9c2,-1.9,1,0,2,-2.9Zm4.8,-3.9c2,0,1,0,1,-1.9q-1.9,0,-1,1.9c-1.9,0,-.9,-1,-1.9,1c-2,1,-1,0,-2,1.9c2,-1.9,2,-.9,3.9,-2.9Zm40.8,-1.9h1h-1l-.9,3.9c1.9,-1,1.9,.9,.9,-3.9Zm12.7,10.7c0,1.9,-1,1.9,.9,1.9l-.9,-1.9l-1,-2Zm2.9,4.8c-1,2,-2,2,.9,2l-.9,-2l-1,-2.9c0,1.9,-1.9,0,1,2.9Zm-13.6,36.9l1.9,-.9h2h-2c-1.9,-1,-1.9,-2,-1.9,.9Zm-35,1c0,-1.9,0,-1,-1.9,-1c0,2,0,1,1.9,1Z" class="g6_11"/>
<path fill-rule="evenodd" d="M567.4,1032.6l-9.7,1l1.9,1.9q-.9,1.9,0,1.9v-1.9c7.8,10.7,26.3,14.6,38.9,1c5.8,-4.9,8.7,-9.7,6.8,-20.4l1,1.9c-2,-6.8,-2,-5.8,-5.9,-10.7c-9.7,-9.7,-26.2,-7.7,-33,-2.9c-1,1,0,0,-1,1c3.9,-1,5.9,-2.9,11.7,-3.9c1,0,9.7,0,9.7,1.9c0,3,1.9,0,-1,1l1,2l-2.9,3.8c-2.9,-.9,-2,0,-4.9,-1.9h-4.8c5.8,1.9,3.9,1,5.8,1.9l3.9,3.9l4.8,-4.8c1,-2,0,-1,1,-2c0,4.9,-1,2,-2.9,6.8l3.9,-.9c1.9,-4.9,0,-3,3.9,-3.9c2.9,3.9,2.9,8.7,2.9,13.6c-1,3.9,0,5.8,-2,8.7l-2.9,5.8l6.8,-6.8c2,-3.8,1,-.9,0,-1.9c-1.9,9.7,-15.5,14.6,-28.1,11.7c.9,0,.9,-1,.9,-1c-3.9,1,-.9,1,-5.8,-2l-2.9,-.9c1.9,1.9,3.9,2.9,6.8,2.9c0,0,0,-1,0,-1Zm-9.7,-18.5c-3.9,4.9,-1,3.9,-1,3.9c2,-1.9,2.9,-4.8,4.9,-6.8c1.9,-1,4.8,-1.9,6.8,-1q1.9,0,2.9,1c-1,-2.9,1,-1,-2,-1.9h2v-1l1.9,-1.9v-1c-1.9,2.9,0,2.9,-4.8,2.9c-2.9,0,-1,0,-2,-1l-.9,-1.9c-3.9,3.9,-3,4.8,-8.8,6.8c2,0,0,0,1,1.9Zm-3.9,1c-1,-1.9,-1,-1,1,-1l1.9,-.9c-1.9,-1,0,0,-1.9,0c-1,0,-1,.9,-2.9,.9ZM549,1017h-2l2,1l.9,1l-.9,-1v-1h.9q0,-1.9,2,-.9c-1,-1,.9,-1,-1,0c-1.9,0,-1,0,-1.9,.9Z" class="g7_11"/>
<path fill-rule="evenodd" d="M366.3,742.1c0,1,1,1,0,2q-3.9,-1,-7.7,.9l2.9,4.9c1.9,4.9,4.8,8.7,7.7,12.6c3.9,3.9,6.8,5.9,9.8,9.7c4.8,-5.8,9.7,-24.2,8.7,-32l-5.8,-2.9c-3.9,.9,1.9,14.5,-4.9,17.5c-9.7,3.8,-8.7,-8.8,-8.7,-10.7c-1,-2.9,.9,0,-2,-2Z" class="g0_11"/>
<path fill-rule="evenodd" d="M299.3,995.7c0,1.9,1,1.9,-1,1.9c-1.9,2,-1.9,1,-3.9,2.9c-1.9,-.9,-.9,0,-.9,1c-1,2.9,0,1,-2,2.9c0,2,1,1,-.9,1l-1,2.9c0,1.9,1,1,-1,1.9c1,3,1,1,-1,3v13.6l1,2.9l1,2.9l1,1.9c1.9,0,1.9,-.9,1.9,1v1.9c0,1,-1,2,1,1c1.9,2,.9,1,2.9,2.9c1,1,1,2,1.9,2.9c2,-.9,2,-1.9,2,0q.9,0,.9,1c2,0,1,0,1,2l2,.9c1.9,0,1.9,-.9,1.9,1l1,1c4.8,.9,11.6,3.9,18.4,3.9c3.9,0,5.9,-1,8.8,-2c3.9,-1.9,3.9,-2.9,6.8,-3.9c0,-2.9,0,-1.9,1.9,-.9h2c3.8,-4.9,5.8,-4.9,9.7,-11.7c3.9,-7.8,2.9,-9.7,2.9,-17.5l-2,-4.8c-2.9,0,-1.9,0,-.9,-2c-2.9,-2.9,-1,-1,-1,-2.9h-1c-1.9,0,-.9,0,-.9,-1.9l-1,-2c-3.9,-3.9,-6.8,-4.8,-10.7,-8.7h-1c1,4.8,1,2.9,-.9,3.9v4.8c4.8,1,6.8,4.9,8.7,8.8c-1,-2,-4.9,-6.8,-5.8,-7.8l-1,-1q0,-1,0,-1.9l-1,-2.9c4.9,0,7.8,2.9,11.7,8.7c5.8,8.7,2.9,13.6,2.9,13.6v1.9c0,0,0,1,0,1c1,7.8,-2.9,8.8,-5.8,14.6c-1,3.9,.9,1,-2,3.9c-15.5,13.6,-40.8,11.6,-54.4,-8.8c-9.7,-16.5,2,-35.9,9.7,-36.9q0,-1,0,-1c0,-2.9,17.5,-.9,8.8,-2.9c-4.9,0,-8.8,-1.9,-10.7,2Z" class="g8_11"/>
<path fill-rule="evenodd" d="M372.2,731.4q0,1,-1,1c0,0,0,1,0,1h-1q0,1,0,1c0,.9,0,0,-1,1.9q0,1,0,2.9c0,2,0,1,-.9,2c-2,0,-2,-1,-2,.9c2.9,2,1,-.9,2,2c0,1.9,-1,14.5,8.7,10.7c6.8,-3,1,-16.6,4.9,-17.5c-4.9,-3.9,-2,-5.9,-9.7,-5.9Z" class="g7_11"/>
<path fill-rule="evenodd" d="M573.2,1039.4c0,0,0,1,-.9,1c12.6,2.9,26.2,-2,28.1,-11.7c1,1,2,-1.9,0,1.9l-6.8,6.8l2.9,-5.8c-.9,1,-.9,0,-1.9,2c1.9,-3.9,0,-3,0,-3.9c-1.9,2.9,-3.9,3.9,-4.9,5.8c3.9,1.9,1,0,2,0c0,0,0,1,2.9,-1.9q-1,1.9,-3.9,3.8c-2.9,-2.9,1,-.9,-3.9,-1.9c1,-1,2,-5.8,2,-5.8c.9,-2.9,2.9,-2.9,4.8,-4.9c-1.9,-1,-.9,-1,-3.9,-1c6.8,3.9,4.9,0,5.9,-2.9l-7.8,-.9c0,-2,-3.9,-5.9,3.9,-3c1.9,0,1.9,1,1.9,3v-3.9c0,.9,2,3.9,2,3.9l.9,1.9c-.9,-8.7,-2.9,-8.7,-4.8,-8.7l-3.9,.9c1.9,-4.8,2.9,-1.9,2.9,-6.8c-1,1,0,0,-1,2l-4.8,4.8c2.9,1,1,-.9,2.9,1c-1,1,0,0,-1.9,1q0,.9,-1,.9c-1,2,-1,1,-2.9,0l-1,1v1c0,0,1,0,1,0c0,0,0,1,0,1l4.8,3.8c2.9,3,0,10.7,-.9,12.7c-3.9,0,-3,-1,-5.9,-3.9l-.9,3.9c0,-7.8,-2,0,-11.7,-3.9l3.9,5.8c0,0,0,1,0,1c-2.9,0,-4.9,-1,-6.8,-2.9l2.9,.9c4.9,3,1.9,3,5.8,2c-.9,-1,0,-1,-2.9,-2c2,0,3.9,-.9,5.8,-2.9c0,1,0,2,1,2.9l1,1c0,0,0,1,0,1Z" class="g9_11"/>
<path fill-rule="evenodd" d="M361.5,979.2l.9,-2c-2.9,-1.9,-.9,0,-2.9,-2.9l-6.8,-10.7c-.9,-2.9,-3.9,-6.8,-2.9,-13.6l1,-1.9H345c-3.9,4.8,-2,14.5,2.9,19.4c11.6,14.6,3.9,0,12.6,11.7q1,0,1,0Z" class="g5_11"/>
<path fill-rule="evenodd" d="M367.3,716.9v2.9c5.8,0,1,0,4.9,-2c0,-.9,0,-1.9,0,-1.9l.9,-1.9c2.9,0,3.9,0,6.8,2.9l1,.9c0,0,1,1,1,1c-1,-6.8,.9,-12.6,-4.9,-16.5c-11.6,-1,-4.8,10.7,-9.7,14.6Z" class="g7_11"/>
<path fill-rule="evenodd" d="M307.1,1050.1c1.9,1.9,0,1.9,.9,3.9c11.7,2.9,32.1,2.9,41.8,-2c-2.9,-2.9,-1.9,-1,-5.8,-2.9c-2,-1,-1,0,-2.9,-1c-2.9,1,-2.9,2,-6.8,3.9c-2.9,1,-4.9,2,-8.8,2c-6.8,0,-13.6,-3,-18.4,-3.9Z" class="g9_11"/>
<path fill-rule="evenodd" d="M571.3,1011.2c-1,3.9,-2,3.9,-1,4.9c3.9,4.8,4.9,3.9,10.7,1.9l1,-1h2.9q1,0,1,-.9c1.9,-1,.9,0,1.9,-1c-1.9,-1.9,0,0,-2.9,-1l-3.9,-3.9c-1.9,-.9,0,0,-5.8,-1.9H580l-.9,-1.9h-5.9l-1.9,1.9q0,1,0,1h-2c3,.9,1,-1,2,1.9Z" class="g6_11"/>
<path fill-rule="evenodd" d="M405.2,729.5l1,-1.9c-3.9,-3,-6.8,-3,-11.7,-3.9c-3.9,-1,-7.8,-2.9,-11.7,-2.9c-2.9,.9,-1.9,1.9,-.9,-1l-3.9,-1c2.9,6.8,1.9,5.8,6.8,8.8c-2,.9,1,.9,-2,0h-.9l-1,-1c1.9,1.9,2.9,3.9,5.8,3.9c-2.9,-1,-1.9,-2,-1.9,-2c3.9,0,1.9,0,5.8,2.9c-1,-.9,-1.9,-1.9,-1.9,-1.9q-1,-1,-1,-1l-2.9,-1.9c13.6,1.9,12.6,4.8,20.4,1ZM375.1,717.8v2c.9,-1,1.9,-1,2.9,-2Z" class="g8_11"/>
<path fill-rule="evenodd" d="M559.6,1035.5v1.9c4.9,7.8,20.4,12.7,32.1,7.8c8.7,-3.9,17.5,-14.6,14.6,-27.2l-1,-1.9c1.9,10.7,-1,15.5,-6.8,20.4c-12.6,13.6,-31.1,9.7,-38.9,-1Z" class="g9_11"/>
<path fill-rule="evenodd" d="M353.7,748c0,0,-6.8,5.8,-5.8,7.7c0,0,.9,3.9,5.8,-1.9c1,-2,2.9,-3.9,3.9,-5.8l1.9,1.9h2L358.6,745q3.8,-1.9,7.7,-.9c1,-1,0,-1,0,-2c0,-1.9,0,-.9,2,-.9v-4.9l-12.7,3.9c1,1.9,2,2.9,1,4.8c0,3,-1,2,-2.9,3Z" class="g8_11"/>
<path fill-rule="evenodd" d="M353.7,938.4l-1.9,2.9c1.9,-1,1.9,.9,1.9,-2.9c3.9,0,2.9,.9,5.8,-2c1,-4.8,1,-2.9,0,-7.8c-.9,-1.9,-.9,-2.9,-1.9,-5.8c-2,3.9,0,2.9,-2.9,3.9c-2,1,-3.9,1,-5.9,1l-.9,4.8c-1,4.9,-1,2,1.9,3.9l5.8,-2.9q-1.9,1,-2.9,2.9c4.9,-2.9,2,-1.9,3.9,-1c-1.9,3,-1,0,-2.9,3Z" class="g5_11"/>
<path fill-rule="evenodd" d="M375.1,720.8c0,3.8,.9,1.9,-1,3.8l-1.9,1l-4.9,2c2.9,0,1.9,0,3.9,2.9c0,0,1,1.9,-2.9,1.9c-2,-1,-1,-1.9,-1,-1.9l-2.9,-1c-2.9,1.9,-2,1,-3.9,0v2.9h3.9c3.9,0,4.8,2,3.9,0h2.9c0,-1,1,0,1,-1c7.7,0,4.8,2,9.7,5.9l5.8,2.9c1.9,1.9,1.9,1,1.9,5.8c0,-3.9,1,-5.8,0,-7.8c-.9,0,-.9,2,-.9,0c-1,-2.9,0,0,0,-.9q.9,-1,.9,-1l1,-1.9c-6.8,0,-6.8,-1,-11.6,-4.9c-2,-1,.9,0,-1,0l-2,-1c-1.9,0,-2.9,1,-4.8,1c1,-2.9,0,-1,1.9,-2.9c1,-1,2.9,-1,3.9,-1Z" class="g8_11"/>
<path fill-rule="evenodd" d="M370.2,1017c3.9,0,4.9,1,7.8,-.9l1,-1c0,0,.9,0,.9,0l5.9,1c-4.9,-3.9,-5.9,0,-7.8,-5.9c-2,1,-1,1,-1,-.9c-1.9,0,-1.9,.9,-1,-1q-1.9,1,-.9,-1q-2,1,-1,-.9c-1.9,0,-1,.9,-1.9,0c-5.9,1.9,-9.8,6.8,-2,10.6Z" class="g9_11"/>
<path fill-rule="evenodd" d="M353.7,748c1.9,-1,2.9,0,2.9,-3c1,-1.9,0,-2.9,-1,-4.8l12.7,-3.9v4.9c.9,-1,.9,0,.9,-2q0,-1.9,0,-2.9c1,-1.9,1,-1,1,-1.9v-1q1,0,1,0c0,0,0,-1,0,-1q1,0,1,-1c0,1,-1,0,-1,1h-2.9c.9,2,0,0,-3.9,0c0,0,0,1,1,2l-10.7,.9c-2.9,4.9,-3.9,7.8,-1,12.7Z" class="g6_11"/>
<path fill-rule="evenodd" d="M336.2,1004.4l-1.9,2c0,0,-1,0,-1,0c-1,-1,-2.9,-2,-4.9,-2c3,1,2,-1,2,2.9c-1,4.9,-2,8.8,-2.9,13.6c-1,2,-1,4.9,-2,6.8q-.9,3.9,-5.8,2.9c7.8,4.9,9.7,-5.8,10.7,-8.7c1,-2.9,1.9,-5.8,3.9,-4.9l2.9,2c-1,-1,1,-2,-3.9,-4.9c0,-3.9,0,-1.9,1,-5.8c1.9,-4.9,.9,1,1.9,-3.9Z" class="g9_11"/>
<path fill-rule="evenodd" d="M372.2,725.6c-3.9,-1,-2,-1,-3.9,-1.9c-1,-2,0,-1,-2.9,-2c.9,-2.9,0,-.9,1.9,-1.9v-2.9l-3.9,-1l-2.9,13.6c1.9,1,1,1.9,3.9,0l2.9,1c0,0,-1,.9,1,1.9c3.9,0,2.9,-1.9,2.9,-1.9c-2,-2.9,-1,-2.9,-3.9,-2.9Z" class="g6_11"/>
<path fill-rule="evenodd" d="M347.9,932.5L343,947.1l6.8,1c2,-2,1,0,2,-2.9c.9,-2,0,-2,0,-3.9l1.9,-2.9c1.9,-3,1,0,2.9,-3c-1.9,-.9,1,-1.9,-3.9,1q1,-1.9,2.9,-2.9l-5.8,2.9c-2.9,-1.9,-2.9,1,-1.9,-3.9Z" class="g9_11"/>
<path fill-rule="evenodd" d="M557.7,1014.1l-1,-.9l-1.9,.9c0,2,.9,1,-1,1c-1,1.9,1,1,-1.9,1c0,1.9,0,.9,-2,.9H549v1l.9,1c3.9,1,7.8,1,12.6,1c1,-2,2,-3.9,3,-4.9c1.9,-2.9,1.9,-1.9,2.9,-4.9c-2,-.9,-4.9,0,-6.8,1c-2,2,-2.9,4.9,-4.9,6.8c0,0,-2.9,1,1,-3.9Z" class="g8_11"/>
<path fill-rule="evenodd" d="M321.6,1028.7c2,-1,0,1.9,2,-1.9l2.9,-13.6c2.9,-7.8,1,-3.9,-1,-4.9l-3.9,15.5q-.9,3.9,0,4.9Z" class="ga_11"/>
<path fill-rule="evenodd" d="M367.3,719.8c-1.9,1,-1,-1,-1.9,1.9c2.9,1,1.9,0,2.9,2c1.9,.9,0,.9,3.9,1.9l1.9,-1l1,-3.8v-3c-2.9,0,-1,1,-2.9,0c-3.9,2,.9,2,-4.9,2Z" class="g9_11"/>
<path fill-rule="evenodd" d="M573.2,1005.4v1h5.9l.9,1.9c2.9,1.9,2,1,4.9,1.9l2.9,-3.8l-1,-2c-5.8,0,-8.7,0,-13.6,1Z" class="g0_11"/>
<path fill-rule="evenodd" d="M396.4,1030.6c0,-3.8,1,-1.9,-1.9,-4.8c-2.9,-2.9,-1.9,-2,-5.8,-2c0,4.9,2.9,7.8,7.7,6.8Z" class="gb_11"/>
<path fill-rule="evenodd" d="M559.6,1028.7c2,1.9,20.4,1.9,23.3,0c-3.8,-1,-22.3,-1,-23.3,0Z" class="gb_11"/>
<path fill-rule="evenodd" d="M339.1,918.9l-.9,2.9c1.9,2,3.8,3.9,7.7,3.9l2,-1.9c-3.9,-3.9,-7.8,-2.9,-6.8,-6.8Z" class="g8_11"/>
<path fill-rule="evenodd" d="M573.2,1039.4v0h4.9c0,0,0,-1,0,-1l-1,-1c-1,-.9,-1,-1.9,-1,-2.9c-1.9,2,-3.8,2.9,-5.8,2.9c2.9,1,2,1,2.9,2Z" class="g5_11"/>
<path fill-rule="evenodd" d="M621.8,1004.4c-1,-2.9,-2.9,-7.8,-4.9,-7.8c0,2,2,6.8,4.9,7.8Z" class="ga_11"/>
<path fill-rule="evenodd" d="M359.5,925.7c1,-1.9,2,2.9,1,-4.8c-1.9,1.9,-1,-2.9,-1.9,1.9c0,2.9,.9,2,.9,2.9Z" class="g8_11"/>
<path fill-rule="evenodd" d="M235.6,1072.3H673.8v5H235.6Z" class="gc_11"/>
</svg>