<?xml version="1.0" encoding="UTF-8" standalone="no"?>
<!DOCTYPE svg PUBLIC "-//W3C//DTD SVG 1.1//EN"
"http://www.w3.org/Graphics/SVG/1.1/DTD/svg11.dtd">
<svg viewBox="0 0 909 1286" version="1.1" xmlns="http://www.w3.org/2000/svg" xmlns:xlink="http://www.w3.org/1999/xlink">
<defs>
<clipPath id="c0_7"><path d="M0,1286.2V0H909.4V1286.2Z"/></clipPath>
<style type="text/css"><![CDATA[
.g0_7{
fill: #FFFFFF;
}
.g1_7{
fill: #D1D3D4;
}
.g2_7{
fill: #0A364A;
}
.g3_7{
fill: none;
stroke: #D1D3D4;
stroke-width: 21.653;
stroke-linecap: butt;
stroke-linejoin: miter;
stroke-miterlimit: 22;
}
.g4_7{
fill: none;
stroke: #D1D3D4;
stroke-width: 19.322;
stroke-linecap: butt;
stroke-linejoin: miter;
stroke-miterlimit: 22;
}
.g5_7{
fill: #BBBDC0;
}
]]></style>
</defs>
<path fill-rule="evenodd" d="M909.4,0H0V1286.2H909.4Z" class="g0_7"/>
<g clip-path="url(#c0_7)">
<path fill-rule="evenodd" d="M785.4,-59.3h-938V88.8h938Z" class="g1_7"/>
<path fill-rule="evenodd" d="M938.9,-11H874.8V1297.3h64.1Z" class="g2_7"/>
<path d="M751.8,-170.4c-90.3,0,-163.5,73.2,-163.5,163.5c0,90.2,73.2,163.4,163.5,163.4c90.3,0,163.4,-73.2,163.4,-163.4c0,-90.3,-73.1,-163.5,-163.4,-163.5Z" class="g3_7"/>
<path fill-rule="evenodd" d="M751.8,-170.4c-90.3,0,-163.5,73.2,-163.5,163.5c0,90.2,73.2,163.3,163.5,163.3c90.3,0,163.4,-73.1,163.4,-163.3c0,-90.3,-73.1,-163.5,-163.4,-163.5Z" class="g2_7"/>
<path d="M751.8,-152.8c-80.6,0,-145.9,65.3,-145.9,145.9c0,80.4,65.3,145.7,145.9,145.7c80.5,0,145.8,-65.3,145.8,-145.7c0,-80.6,-65.3,-145.9,-145.8,-145.9Z" class="g4_7"/>
<path fill-rule="evenodd" d="M751.8,-152.8c-80.6,0,-145.9,65.3,-145.9,145.9c0,80.4,65.3,145.7,145.9,145.7c80.5,0,145.8,-65.3,145.8,-145.7c0,-80.6,-65.3,-145.9,-145.8,-145.9Z" class="g2_7"/>
</g>
<image preserveAspectRatio="none" x="639" y="28" width="61" height="55" xlink:href="img/1.png"/>
<path fill-rule="evenodd" d="M698.4,61.9H714V53.5c0,-.5,2.7,-2,3.2,-2.3c1.1,-.7,2.2,-1.6,3.4,-2.2l2.4,2.8c.2,.2,.4,.4,.6,.7l7.3,8.9c.7,.8,1.6,.5,3.5,.5h16.2c-.4,-.5,-.7,-.9,-1.1,-1.3l-2.9,-3.3c-.2,-.2,-.3,-.3,-.6,-.6l-4.5,-5.1c-1,-1.3,-3.6,-3.9,-4.6,-5.1c-.7,-1,-4.1,-4.5,-4.5,-5.2c.4,-.1,6.5,-4.4,7.3,-5l7.2,-5c.5,-.4,1.8,-1.2,2.1,-1.6H728.2q-.2,.1,-.5,.3c-.3,.2,-.5,.4,-.8,.7c-3.6,2.8,-7.6,6.1,-11.2,8.8c-.6,.4,-1.1,.9,-1.7,1.3V29.7H698.4Z" class="g0_7"/>
<path fill-rule="evenodd" d="M776.5,61.9h43.6V53.5H792v-4h21.4c.3,0,.4,-.1,.4,-.4V41.8c0,-.3,-.1,-.4,-.4,-.4H792V37.7h26.7v-8H776.5Z" class="g0_7"/>
<path fill-rule="evenodd" d="M820.8,37.9h14.4v24h15.6v-24h14.3V29.7H820.8Z" class="g0_7"/>
<path fill-rule="evenodd" d="M752.3,61.9h15.6V29.7H752.3Z" class="g0_7"/>
<path fill-rule="evenodd" d="M777.3,78.3h2.6V72l2.2,4.8c.8,1.7,.1,1.5,3.3,1.5c.3,0,.4,-.1,.4,-.4V67.1h-2.7v6.1q0,-.1,0,-.1c0,0,-.1,-.1,-.1,-.1l-2.4,-5.9h-3.3Z" class="g0_7"/>
<path fill-rule="evenodd" d="M847.5,78.3h2.6V72l2.2,4.8c.8,1.7,.1,1.5,3.3,1.5c.3,0,.4,-.1,.4,-.4V67.1h-2.7v6.1q0,-.1,0,-.1l-.3,-.7c-.2,-.3,-.2,-.4,-.4,-.7l-1.8,-4.6h-3.3Z" class="g0_7"/>
<path fill-rule="evenodd" d="M713.5,71.7c-1,.2,-1.3,.1,-2.5,.1V69.9c1,0,3.4,-.2,2.5,1.8Zm-5.3,6.2c0,.6,.8,.4,2.4,.4c.7,0,.4,-1.5,.4,-3.4h1.9c.8,0,.6,2.5,.8,3.4h3c-.1,-.5,-.2,-1,-.3,-1.4c0,-.5,.1,-1,0,-1.6c-.2,-1.9,0,-1.3,-.8,-2.4c.3,-.5,.5,-.5,.8,-1.1c.4,-1.2,.4,-3,-.4,-3.9c-.4,-.6,-1.3,-.8,-2.3,-.8h-5.5Z" class="g0_7"/>
<path fill-rule="evenodd" d="M697.9,72.2c0,3.1,.7,6.3,4.5,6.3c2.1,0,2.5,-.7,3.1,-1.2l.3,1H707V71.8h-3.5c-.6,0,-.4,.9,-.4,2.6h1.1c-.2,1.9,-3.4,2.1,-3.4,-1.2c0,-5.1,3,-3.9,3.1,-2.3H707c-.2,-1,-.3,-2,-1.3,-2.9c-2.1,-2,-7.8,-2,-7.8,4.2Z" class="g0_7"/>
<path fill-rule="evenodd" d="M786.9,70.1c0,1.5,.2,2.8,1.9,3.5c1.4,.5,3.5,.2,3.5,1.4c0,.9,-2.1,1.1,-2.2,-.2h-3.4c.1,2.7,1.9,3.6,3.7,3.7h1.1c1.2,0,2.2,-.4,2.7,-.7c1.8,-1.4,2,-5.6,-.8,-6.4c-.6,-.2,-1.5,-.4,-2,-.5c-.9,-.2,-1.6,-.2,-1.6,-1c0,-.6,2.1,-1,2.2,.4h3.2c0,-3,-2.3,-3.5,-4.7,-3.5c-2.2,0,-3.6,1.1,-3.6,3.3Z" class="g0_7"/>
<path fill-rule="evenodd" d="M857.1,70.1c0,1.5,.2,2.8,1.9,3.5c1.4,.5,3.4,.2,3.4,1.4c0,.9,-2,1.1,-2.1,-.2h-3.4c.1,2.7,1.9,3.6,3.7,3.7h1.1c1.1,0,2.2,-.4,2.7,-.7c1.8,-1.4,2,-5.6,-.8,-6.4c-1.9,-.6,-3.6,-.5,-3.6,-1.5c0,-.6,2.1,-1,2.2,.4h3.2c0,-3,-2.3,-3.5,-4.7,-3.5c-2.2,0,-3.6,1.1,-3.6,3.3Z" class="g0_7"/>
<path fill-rule="evenodd" d="M755.3,75.6c-2,0,-1.8,-2.3,-1.8,-3.5c0,-3.2,3.4,-3,3.4,-.1c0,1.1,.1,3.6,-1.6,3.6Zm.1,2.9h-.3c-1.4,0,-2.7,-.6,-3.3,-1.4c-1.2,-1.5,-1.2,-3.2,-1.2,-5c0,-2.9,1.5,-5.3,4.3,-5.3c4.2,0,5,2.7,5,6.4c0,3.8,-2.3,5.3,-4.5,5.3Z" class="g0_7"/>
<path fill-rule="evenodd" d="M723.7,72.5c0,1.3,-.2,3.1,-1.8,3.1c-1.9,0,-2,-3.4,-1.3,-4.9c.1,-.4,.4,-.7,.8,-.9c1.6,-.5,2.3,1,2.3,2.7Zm-1.2,6h-.9c-.5,0,-1.1,-.1,-1.7,-.4c-2.6,-1,-2.5,-4.2,-2.5,-6.4c0,-2.8,1.6,-4.9,4.4,-4.9c3.8,0,4.8,2.5,4.8,6.2c0,3.5,-1.8,5.3,-4.1,5.5Z" class="g0_7"/>
<path fill-rule="evenodd" d="M840.1,73.2v-1c0,-3.4,3.4,-3.2,3.4,-.1c0,1.3,.1,3.5,-1.8,3.5c-1,0,-1.6,-1.3,-1.6,-2.4Zm-2.9,-1c0,3.1,.7,6.3,4.5,6.3c1.5,0,2.8,-.5,3.5,-1.3c1.9,-2.4,2.3,-10.4,-3.2,-10.4c-3.2,0,-4.8,2,-4.8,5.4Z" class="g0_7"/>
<path fill-rule="evenodd" d="M816.1,72.9c0,2.8,.7,5.6,4,5.6c2.9,0,4.2,-2,4.2,-4.9V67.1h-2.7v5.3c0,1.5,-.1,3,-1.5,3c-1.7,0,-1.2,-3.7,-1.2,-6.1c0,-2.7,.6,-2.2,-2.8,-2.2Z" class="g0_7"/>
<path fill-rule="evenodd" d="M727.7,74c0,2.9,1.7,4.3,3.5,4.5h1c1.3,-.1,2.5,-.8,3,-1.9c1,-1.9,.7,-7,.7,-9.5h-2.8c0,1.5,.2,6.5,-.2,7.6c-.4,1,-2.5,1.6,-2.5,-1.7V67.1h-2.7Z" class="g0_7"/>
<path fill-rule="evenodd" d="M742.4,71.7c-1,.2,-1.2,.1,-2.3,.1V69.5c2.5,0,2.4,0,2.4,1.5c0,.2,-.1,.6,-.1,.7Zm-5.1,6.2c0,.6,.8,.4,2.4,.4c.3,0,.4,-.1,.4,-.4V74.4c1.7,0,3.6,.2,4.7,-1c1.4,-1.7,1.2,-6.3,-2.3,-6.3h-5.2Z" class="g0_7"/>
<path fill-rule="evenodd" d="M760.9,78.3h2.7V74.1h3.5c0,-3.5,.8,-2.8,-3.5,-2.8V69.9h4.2V67.1h-6.9Z" class="g0_7"/>
<path fill-rule="evenodd" d="M795.8,69.9h2.5v8.4H801V69.9h2.6V67.1h-7.8Z" class="g0_7"/>
<path fill-rule="evenodd" d="M824.9,69.9h2.6v8.4h2.7V69.9h2.5V67.1h-7.8Z" class="g0_7"/>
<path fill-rule="evenodd" d="M807.6,67.5v2.4h2.5v8c0,.6,1,.4,2.7,.4v-8c0,-.6,.9,-.4,2.6,-.4V67.1H808c-.3,0,-.4,.1,-.4,.4Z" class="g0_7"/>
<path fill-rule="evenodd" d="M833.4,78.3h2.7V67.1h-2.7Z" class="g0_7"/>
<path fill-rule="evenodd" d="M773.2,77.9c0,.3,.1,.4,.4,.4h2.3V67.1h-2.7Z" class="g0_7"/>
<path fill-rule="evenodd" d="M804.2,77.9c0,.3,.1,.4,.4,.4h2.3V67.1h-2.7Z" class="g0_7"/>
<image preserveAspectRatio="none" x="369" y="1137" width="171" height="128" xlink:href="img/2.png"/>
<path fill-rule="evenodd" d="M359.3,1266.8H550.1v4.9H359.3Z" class="g5_7"/>
</svg>