<?xml version="1.0" encoding="UTF-8" standalone="no"?>
<!DOCTYPE svg PUBLIC "-//W3C//DTD SVG 1.1//EN"
"http://www.w3.org/Graphics/SVG/1.1/DTD/svg11.dtd">
<svg viewBox="0 0 909 1286" version="1.1" xmlns="http://www.w3.org/2000/svg" xmlns:xlink="http://www.w3.org/1999/xlink">
<defs>
<clipPath id="c0_3"><path d="M0,1286.2V0H909.4V1286.2Z"/></clipPath>
<style type="text/css"><![CDATA[
.g0_3{
fill: #FFFFFF;
}
.g1_3{
fill: #D1D3D4;
}
.g2_3{
fill: #0A364A;
}
.g3_3{
fill: none;
stroke: #D1D3D4;
stroke-width: 21.653;
stroke-linecap: butt;
stroke-linejoin: miter;
stroke-miterlimit: 22;
}
.g4_3{
fill: none;
stroke: #D1D3D4;
stroke-width: 19.322;
stroke-linecap: butt;
stroke-linejoin: miter;
stroke-miterlimit: 22;
}
.g5_3{
fill: #63636B;
}
.g6_3{
fill: #428CF7;
}
.g7_3{
fill: #31AD52;
}
.g8_3{
fill: #FFBD00;
}
.g9_3{
fill: #C6C6CE;
}
.ga_3{
fill: #EF4231;
}
.gb_3{
fill: #A5ADAD;
}
.gc_3{
fill: #BBBDC0;
}
]]></style>
</defs>
<path fill-rule="evenodd" d="M909.4,0H0V1286.2H909.4Z" class="g0_3"/>
<g clip-path="url(#c0_3)">
<path fill-rule="evenodd" d="M785.4,-59.3h-938V88.8h938Z" class="g1_3"/>
<path fill-rule="evenodd" d="M938.9,-11H874.8V1297.3h64.1Z" class="g2_3"/>
<path d="M751.8,-170.4c-90.3,0,-163.5,73.2,-163.5,163.5c0,90.2,73.2,163.4,163.5,163.4c90.3,0,163.4,-73.2,163.4,-163.4c0,-90.3,-73.1,-163.5,-163.4,-163.5Z" class="g3_3"/>
<path fill-rule="evenodd" d="M751.8,-170.4c-90.3,0,-163.5,73.2,-163.5,163.5c0,90.2,73.2,163.3,163.5,163.3c90.3,0,163.4,-73.1,163.4,-163.3c0,-90.3,-73.1,-163.5,-163.4,-163.5Z" class="g2_3"/>
<path d="M751.8,-152.8c-80.6,0,-145.9,65.3,-145.9,145.9c0,80.4,65.3,145.7,145.9,145.7c80.5,0,145.8,-65.3,145.8,-145.7c0,-80.6,-65.3,-145.9,-145.8,-145.9Z" class="g4_3"/>
<path fill-rule="evenodd" d="M751.8,-152.8c-80.6,0,-145.9,65.3,-145.9,145.9c0,80.4,65.3,145.7,145.9,145.7c80.5,0,145.8,-65.3,145.8,-145.7c0,-80.6,-65.3,-145.9,-145.8,-145.9Z" class="g2_3"/>
</g>
<image preserveAspectRatio="none" x="639" y="28" width="61" height="55" xlink:href="img/1.png"/>
<path fill-rule="evenodd" d="M698.4,61.9H714V53.5c0,-.5,2.7,-2,3.2,-2.3c1.1,-.7,2.2,-1.6,3.4,-2.2l2.4,2.8c.2,.2,.4,.4,.6,.7l7.3,8.9c.7,.8,1.6,.5,3.5,.5h16.2c-.4,-.5,-.7,-.9,-1.1,-1.3l-2.9,-3.3c-.2,-.2,-.3,-.3,-.6,-.6l-4.5,-5.1c-1,-1.3,-3.6,-3.9,-4.6,-5.1c-.7,-1,-4.1,-4.5,-4.5,-5.2c.4,-.1,6.5,-4.4,7.3,-5l7.2,-5c.5,-.4,1.8,-1.2,2.1,-1.6H728.2q-.2,.1,-.5,.3c-.3,.2,-.5,.4,-.8,.7c-3.6,2.8,-7.6,6.1,-11.2,8.8c-.6,.4,-1.1,.9,-1.7,1.3V29.7H698.4Z" class="g0_3"/>
<path fill-rule="evenodd" d="M776.5,61.9h43.6V53.5H792v-4h21.4c.3,0,.4,-.1,.4,-.4V41.8c0,-.3,-.1,-.4,-.4,-.4H792V37.7h26.7v-8H776.5Z" class="g0_3"/>
<path fill-rule="evenodd" d="M820.8,37.9h14.4v24h15.6v-24h14.3V29.7H820.8Z" class="g0_3"/>
<path fill-rule="evenodd" d="M752.3,61.9h15.6V29.7H752.3Z" class="g0_3"/>
<path fill-rule="evenodd" d="M777.3,78.3h2.6V72l2.2,4.8c.8,1.7,.1,1.5,3.3,1.5c.3,0,.4,-.1,.4,-.4V67.1h-2.7v6.1q0,-.1,0,-.1c0,0,-.1,-.1,-.1,-.1l-2.4,-5.9h-3.3Z" class="g0_3"/>
<path fill-rule="evenodd" d="M847.5,78.3h2.6V72l2.2,4.8c.8,1.7,.1,1.5,3.3,1.5c.3,0,.4,-.1,.4,-.4V67.1h-2.7v6.1q0,-.1,0,-.1l-.3,-.7c-.2,-.3,-.2,-.4,-.4,-.7l-1.8,-4.6h-3.3Z" class="g0_3"/>
<path fill-rule="evenodd" d="M713.5,71.7c-1,.2,-1.3,.1,-2.5,.1V69.9c1,0,3.4,-.2,2.5,1.8Zm-5.3,6.2c0,.6,.8,.4,2.4,.4c.7,0,.4,-1.5,.4,-3.4h1.9c.8,0,.6,2.5,.8,3.4h3c-.1,-.5,-.2,-1,-.3,-1.4c0,-.5,.1,-1,0,-1.6c-.2,-1.9,0,-1.3,-.8,-2.4c.3,-.5,.5,-.5,.8,-1.1c.4,-1.2,.4,-3,-.4,-3.9c-.4,-.6,-1.3,-.8,-2.3,-.8h-5.5Z" class="g0_3"/>
<path fill-rule="evenodd" d="M697.9,72.2c0,3.1,.7,6.3,4.5,6.3c2.1,0,2.5,-.7,3.1,-1.2l.3,1H707V71.8h-3.5c-.6,0,-.4,.9,-.4,2.6h1.1c-.2,1.9,-3.4,2.1,-3.4,-1.2c0,-5.1,3,-3.9,3.1,-2.3H707c-.2,-1,-.3,-2,-1.3,-2.9c-2.1,-2,-7.8,-2,-7.8,4.2Z" class="g0_3"/>
<path fill-rule="evenodd" d="M786.9,70.1c0,1.5,.2,2.8,1.9,3.5c1.4,.5,3.5,.2,3.5,1.4c0,.9,-2.1,1.1,-2.2,-.2h-3.4c.1,2.7,1.9,3.6,3.7,3.7h1.1c1.2,0,2.2,-.4,2.7,-.7c1.8,-1.4,2,-5.6,-.8,-6.4c-.6,-.2,-1.5,-.4,-2,-.5c-.9,-.2,-1.6,-.2,-1.6,-1c0,-.6,2.1,-1,2.2,.4h3.2c0,-3,-2.3,-3.5,-4.7,-3.5c-2.2,0,-3.6,1.1,-3.6,3.3Z" class="g0_3"/>
<path fill-rule="evenodd" d="M857.1,70.1c0,1.5,.2,2.8,1.9,3.5c1.4,.5,3.4,.2,3.4,1.4c0,.9,-2,1.1,-2.1,-.2h-3.4c.1,2.7,1.9,3.6,3.7,3.7h1.1c1.1,0,2.2,-.4,2.7,-.7c1.8,-1.4,2,-5.6,-.8,-6.4c-1.9,-.6,-3.6,-.5,-3.6,-1.5c0,-.6,2.1,-1,2.2,.4h3.2c0,-3,-2.3,-3.5,-4.7,-3.5c-2.2,0,-3.6,1.1,-3.6,3.3Z" class="g0_3"/>
<path fill-rule="evenodd" d="M755.3,75.6c-2,0,-1.8,-2.3,-1.8,-3.5c0,-3.2,3.4,-3,3.4,-.1c0,1.1,.1,3.6,-1.6,3.6Zm.1,2.9h-.3c-1.4,0,-2.7,-.6,-3.3,-1.4c-1.2,-1.5,-1.2,-3.2,-1.2,-5c0,-2.9,1.5,-5.3,4.3,-5.3c4.2,0,5,2.7,5,6.4c0,3.8,-2.3,5.3,-4.5,5.3Z" class="g0_3"/>
<path fill-rule="evenodd" d="M723.7,72.5c0,1.3,-.2,3.1,-1.8,3.1c-1.9,0,-2,-3.4,-1.3,-4.9c.1,-.4,.4,-.7,.8,-.9c1.6,-.5,2.3,1,2.3,2.7Zm-1.2,6h-.9c-.5,0,-1.1,-.1,-1.7,-.4c-2.6,-1,-2.5,-4.2,-2.5,-6.4c0,-2.8,1.6,-4.9,4.4,-4.9c3.8,0,4.8,2.5,4.8,6.2c0,3.5,-1.8,5.3,-4.1,5.5Z" class="g0_3"/>
<path fill-rule="evenodd" d="M840.1,73.2v-1c0,-3.4,3.4,-3.2,3.4,-.1c0,1.3,.1,3.5,-1.8,3.5c-1,0,-1.6,-1.3,-1.6,-2.4Zm-2.9,-1c0,3.1,.7,6.3,4.5,6.3c1.5,0,2.8,-.5,3.5,-1.3c1.9,-2.4,2.3,-10.4,-3.2,-10.4c-3.2,0,-4.8,2,-4.8,5.4Z" class="g0_3"/>
<path fill-rule="evenodd" d="M816.1,72.9c0,2.8,.7,5.6,4,5.6c2.9,0,4.2,-2,4.2,-4.9V67.1h-2.7v5.3c0,1.5,-.1,3,-1.5,3c-1.7,0,-1.2,-3.7,-1.2,-6.1c0,-2.7,.6,-2.2,-2.8,-2.2Z" class="g0_3"/>
<path fill-rule="evenodd" d="M727.7,74c0,2.9,1.7,4.3,3.5,4.5h1c1.3,-.1,2.5,-.8,3,-1.9c1,-1.9,.7,-7,.7,-9.5h-2.8c0,1.5,.2,6.5,-.2,7.6c-.4,1,-2.5,1.6,-2.5,-1.7V67.1h-2.7Z" class="g0_3"/>
<path fill-rule="evenodd" d="M742.4,71.7c-1,.2,-1.2,.1,-2.3,.1V69.5c2.5,0,2.4,0,2.4,1.5c0,.2,-.1,.6,-.1,.7Zm-5.1,6.2c0,.6,.8,.4,2.4,.4c.3,0,.4,-.1,.4,-.4V74.4c1.7,0,3.6,.2,4.7,-1c1.4,-1.7,1.2,-6.3,-2.3,-6.3h-5.2Z" class="g0_3"/>
<path fill-rule="evenodd" d="M760.9,78.3h2.7V74.1h3.5c0,-3.5,.8,-2.8,-3.5,-2.8V69.9h4.2V67.1h-6.9Z" class="g0_3"/>
<path fill-rule="evenodd" d="M795.8,69.9h2.5v8.4H801V69.9h2.6V67.1h-7.8Z" class="g0_3"/>
<path fill-rule="evenodd" d="M824.9,69.9h2.6v8.4h2.7V69.9h2.5V67.1h-7.8Z" class="g0_3"/>
<path fill-rule="evenodd" d="M807.6,67.5v2.4h2.5v8c0,.6,1,.4,2.7,.4v-8c0,-.6,.9,-.4,2.6,-.4V67.1H808c-.3,0,-.4,.1,-.4,.4Z" class="g0_3"/>
<path fill-rule="evenodd" d="M833.4,78.3h2.7V67.1h-2.7Z" class="g0_3"/>
<path fill-rule="evenodd" d="M773.2,77.9c0,.3,.1,.4,.4,.4h2.3V67.1h-2.7Z" class="g0_3"/>
<path fill-rule="evenodd" d="M804.2,77.9c0,.3,.1,.4,.4,.4h2.3V67.1h-2.7Z" class="g0_3"/>
<path fill-rule="evenodd" d="M394.7,1050H362.6v10.3h22.9c-4.6,25.2,-39,24,-47,1.1c-5.7,-18.3,11.5,-44.7,39,-28.6c2.3,1.1,0,0,2.3,1.1c3.4,-2.3,4.5,-3.4,5.7,-8c-5.7,-2.3,-11.5,-6.9,-20.6,-8c-28.7,-1.2,-47,28.6,-34.4,51.5c21.8,36.7,73.3,14.9,64.2,-19.4Z" class="g5_3"/>
<path fill-rule="evenodd" d="M516.1,1053.4c16.1,-6.9,22.9,20.6,8,25.2c-14.9,5.7,-24,-19.5,-8,-25.2Zm13.8,-5.7c-18.4,-18.4,-49.3,19.5,-20.7,37.8c9.2,5.7,16.1,1.1,23,-1.2c-1.2,8.1,-2.3,13.8,-9.2,14.9c-8,2.3,-11.5,-2.3,-14.9,-6.8l-8,3.4c5.7,16,29.8,18.3,37.8,3.4c4.6,-8,3.4,-43.5,3.4,-55c-11.4,0,-6.9,1.2,-11.4,3.5Z" class="g5_3"/>
<path fill-rule="evenodd" d="M654.8,1035.1l10.3,27.5H644.4Zm-28.7,52.7h9.2l5.7,-17.2h25.2c3.5,0,5.7,11.5,8,17.2h8.1l-23,-64.2h-9.1Z" class="g5_3"/>
<path fill-rule="evenodd" d="M417.6,1053.4c14.9,-8,24,19.5,8,25.2c-14.9,5.7,-25.2,-16,-8,-25.2Zm0,-10.3c-29.8,5.7,-21.8,50.4,8,44.7c28.6,-5.7,21.8,-49.3,-8,-44.7Z" class="g5_3"/>
<path fill-rule="evenodd" d="M466.8,1053.4c17.2,-6.9,23,20.6,8.1,25.2c-17.2,5.7,-24.1,-19.5,-8.1,-25.2Zm-1.1,-9.2c-29.8,6.9,-19.5,50.5,10.3,43.6c28.7,-5.7,19.5,-50.4,-10.3,-43.6Z" class="g5_3"/>
<path fill-rule="evenodd" d="M572.3,1064.9c1.1,-11.5,12.6,-17.2,20.6,-9.2c-3.5,3.4,-14.9,8,-20.6,9.2Zm30.9,16c-1.2,-4.6,-2.3,-4.6,-5.7,-6.9c-1.2,0,-18.4,13.8,-23,-1.1l29.8,-12.6c-5.7,-22.9,-37.8,-21.8,-41.2,1.1c-2.3,12.6,4.6,21.8,12.6,25.2c12.6,5.8,21.8,-1.1,27.5,-5.7Z" class="g5_3"/>
<path fill-rule="evenodd" d="M548.2,1086.6l9.2,1.2l1.1,-66.5H548.2Z" class="g5_3"/>
<path fill-rule="evenodd" d="M466.8,1053.4c-16,5.7,-9.1,30.9,8.1,25.2c14.9,-4.6,9.1,-32.1,-8.1,-25.2Z" class="g0_3"/>
<path fill-rule="evenodd" d="M417.6,1053.4c-17.2,9.2,-6.9,30.9,8,25.2c16,-5.7,6.9,-33.2,-8,-25.2Z" class="g0_3"/>
<path fill-rule="evenodd" d="M516.1,1053.4c-16,5.7,-6.9,30.9,8,25.2c14.9,-4.6,8.1,-32.1,-8,-25.2Z" class="g0_3"/>
<path fill-rule="evenodd" d="M697.2,1023.6h-5.8c-2.3,12.6,0,48.1,-1.1,64.2h8c-1.1,-14.9,2.3,-53.9,-1.1,-64.2Z" class="g5_3"/>
<path fill-rule="evenodd" d="M644.4,1062.6h20.7l-10.3,-27.5Z" class="g0_3"/>
<path fill-rule="evenodd" d="M281.2,1020.2c-10.3,5.7,-4.6,20.6,6.9,17.2c11.4,-3.5,5.7,-24.1,-6.9,-17.2Z" class="g6_3"/>
<path fill-rule="evenodd" d="M281.2,1070.6c-4.6,1.1,-6.9,5.7,-4.6,11.5c1.2,4.5,6.9,8,12.6,4.5c9.2,-3.4,5.8,-21.7,-8,-16Z" class="g6_3"/>
<path fill-rule="evenodd" d="M281.2,1045.4c-11.4,6.9,-2.3,20.6,8,16c10.3,-3.4,3.5,-22.9,-8,-16Z" class="g6_3"/>
<path fill-rule="evenodd" d="M269.8,1008.7c-17.2,-4.6,-17.2,9.2,-10.4,13.8c8.1,4.6,16.1,-4.6,10.4,-13.8Z" class="g7_3"/>
<path fill-rule="evenodd" d="M257.1,1046.5c9.2,5.8,18.4,-1.1,13.8,-10.3c-3.4,-5.7,-18.3,-6.9,-13.8,10.3Z" class="g7_3"/>
<path fill-rule="evenodd" d="M260.6,1059.1c-10.3,4.6,-3.5,19.5,6.9,13.8c8,-3.5,3.4,-19.5,-6.9,-13.8Z" class="g7_3"/>
<path fill-rule="evenodd" d="M260.6,1084.3c-10.3,4.6,-3.5,19.5,6.9,13.8c8,-3.4,3.4,-19.5,-6.9,-13.8Z" class="g7_3"/>
<path fill-rule="evenodd" d="M237.7,1047.7c0,1.1,-4.6,4.6,-1.2,10.3c5.8,6.9,16.1,-1.2,11.5,-9.2c-2.3,-2.3,-8,-3.4,-10.3,-1.1Z" class="g8_3"/>
<path fill-rule="evenodd" d="M237.7,1022.5c0,1.1,-4.6,3.4,-1.2,9.1c5.8,11.5,20.6,-6.8,8,-10.3c-2.2,0,-6.8,0,-6.8,1.2Z" class="g8_3"/>
<path fill-rule="evenodd" d="M238.8,1072.9c-3.4,1.1,-5.7,4.6,-2.3,9.2c1.2,3.4,5.8,4.5,9.2,2.2c6.9,-4.5,2.3,-16,-6.9,-11.4Z" class="g8_3"/>
<path fill-rule="evenodd" d="M237.7,1098.1c-5.8,9.2,2.3,16,8,11.5c5.7,-4.6,4.6,-14.9,-8,-11.5Z" class="g8_3"/>
<path fill-rule="evenodd" d="M237.7,997.3c0,1.1,-4.6,3.4,-1.2,9.1c3.5,6.9,16.1,1.2,11.5,-6.8c-2.3,-4.6,-10.3,-3.5,-10.3,-2.3Z" class="g8_3"/>
<path fill-rule="evenodd" d="M548.2,1021.3h10.3l-1.1,66.5l-9.2,-1.2Zm0,0l-1.2,66.5h11.5c0,-1.2,2.3,-60.7,0,-67.6c-3.4,-1.2,-8,-1.2,-10.3,1.1Z" class="g9_3"/>
<path fill-rule="evenodd" d="M572.3,1064.9c5.7,-1.2,17.1,-5.8,20.6,-9.2c-8,-8,-19.5,-2.3,-20.6,9.2Z" class="g0_3"/>
<path fill-rule="evenodd" d="M218.2,1046.5l6.9,-1.1c1.1,-5.7,1.1,-6.9,-1.2,-10.3c-10.3,-2.3,-11.4,4.6,-5.7,11.4Z" class="ga_3"/>
<path fill-rule="evenodd" d="M217,1085.5c-5.7,8,0,13.7,5.8,10.3c5.7,-2.3,4.6,-12.6,-5.8,-10.3Z" class="ga_3"/>
<path fill-rule="evenodd" d="M214.8,1069.4c8,5.8,13.7,0,10.3,-5.7c-2.3,-5.7,-12.6,-4.6,-10.3,5.7Z" class="ga_3"/>
<path fill-rule="evenodd" d="M217,1011c-1.1,1.2,-2.2,0,-2.2,3.4c-1.2,5.8,5.7,8.1,9.1,5.8c5.7,-3.5,0,-14.9,-6.9,-9.2Z" class="ga_3"/>
<path fill-rule="evenodd" d="M697.2,1023.6c3.4,10.3,0,49.3,1.1,64.2h-8c1.1,-16.1,-1.2,-51.6,1.1,-64.2c-3.4,2.3,-1.1,11.5,-1.1,14.9v49.3h9.1v-60.7c0,-5.8,0,-1.2,-2.2,-3.5Z" class="gb_3"/>
<path fill-rule="evenodd" d="M194.1,1082.1c3.5,1.1,5.8,1.1,9.2,1.1V1074c-5.7,-1.1,-10.3,0,-9.2,8.1Z" class="g6_3"/>
<path fill-rule="evenodd" d="M202.1,1031.6c1.2,-3.4,1.2,-4.5,0,-8c-11.4,-3.4,-12.6,11.5,0,8Z" class="g6_3"/>
<path fill-rule="evenodd" d="M202.1,1056.8c2.3,-6.8,-2.2,-11.4,-6.8,-6.8c-4.6,4.6,1.1,9.1,6.8,6.8Z" class="g6_3"/>
<path fill-rule="evenodd" d="M185.9,1128.9H732.8v5H185.9Z" class="gc_3"/>
</svg>