<?xml version="1.0" encoding="UTF-8" standalone="no"?>
<!DOCTYPE svg PUBLIC "-//W3C//DTD SVG 1.1//EN"
"http://www.w3.org/Graphics/SVG/1.1/DTD/svg11.dtd">
<svg viewBox="0 0 909 1286" version="1.1" xmlns="http://www.w3.org/2000/svg" xmlns:xlink="http://www.w3.org/1999/xlink">
<defs>
<clipPath id="c0_1"><path d="M0,1286.2V0H909.4V1286.2Z"/></clipPath>
<style type="text/css"><![CDATA[
.g0_1{
fill: #E6E7E8;
}
.g1_1{
fill: #D1D3D4;
}
.g2_1{
fill: #0A364A;
}
.g3_1{
fill: none;
stroke: #D1D3D4;
stroke-width: 21.653;
stroke-linecap: butt;
stroke-linejoin: miter;
stroke-miterlimit: 22;
}
.g4_1{
fill: none;
stroke: #D1D3D4;
stroke-width: 19.322;
stroke-linecap: butt;
stroke-linejoin: miter;
stroke-miterlimit: 22;
}
.g5_1{
fill: #231F20;
}
.g6_1{
fill: #FFFFFF;
}
.g7_1{
fill: #005D99;
}
.g8_1{
fill: #55B9FF;
}
.g9_1{
fill: #009BA0;
}
.ga_1{
fill: #D5D5D5;
}
]]></style>
</defs>
<path fill-rule="evenodd" d="M0,0H909.4V1286.2H0Z" class="g0_1"/>
<g clip-path="url(#c0_1)">
<path fill-rule="evenodd" d="M103.9,299h938V473.2h-938Z" class="g1_1"/>
<path fill-rule="evenodd" d="M0,-11H229.4V1297.3H0Z" class="g2_1"/>
<path fill-rule="evenodd" d="M184.4,1247.8H997.2v29H184.4Z" class="g0_1"/>
</g>
<path d="M302,228.7c90.3,0,163.5,73.2,163.5,163.5c0,90.3,-73.2,163.5,-163.5,163.5c-90.3,0,-163.5,-73.2,-163.5,-163.5c0,-90.3,73.2,-163.5,163.5,-163.5Z" class="g3_1"/>
<path fill-rule="evenodd" d="M302,228.7c90.3,0,163.5,73.2,163.5,163.5c0,90.3,-73.2,163.5,-163.5,163.5c-90.3,0,-163.5,-73.2,-163.5,-163.5c0,-90.3,73.2,-163.5,163.5,-163.5Z" class="g2_1"/>
<path d="M302,246.3c80.6,0,145.9,65.3,145.9,145.9c0,80.6,-65.3,145.9,-145.9,145.9c-80.6,0,-145.9,-65.3,-145.9,-145.9c0,-80.6,65.3,-145.9,145.9,-145.9Z" class="g4_1"/>
<path fill-rule="evenodd" d="M302,246.3c80.6,0,145.9,65.3,145.9,145.9c0,80.6,-65.3,145.9,-145.9,145.9c-80.6,0,-145.9,-65.3,-145.9,-145.9c0,-80.6,65.3,-145.9,145.9,-145.9Z" class="g2_1"/>
<path fill-rule="evenodd" d="M478.4,418.4h403v2.8h-403Z" class="g5_1"/>
<image preserveAspectRatio="none" x="80" y="31" width="92" height="81" xlink:href="img/1.png"/>
<path fill-rule="evenodd" d="M28.9,157H47.1v-9.7c0,-.6,3.1,-2.4,3.7,-2.7c1.4,-.9,2.6,-1.9,4,-2.6l2.8,3.2c.3,.3,.5,.6,.7,.9l8.5,10.3c.9,1,1.9,.6,4.2,.6H89.8c-.4,-.6,-.8,-1,-1.3,-1.5l-3.3,-3.8c-.3,-.3,-.5,-.4,-.7,-.7l-5.3,-6C78,143.5,75,140.5,73.9,139C73,137.9,69,133.8,68.6,133c.4,-.1,7.6,-5.2,8.5,-5.8l8.4,-5.9c.6,-.4,2.1,-1.4,2.4,-1.8H63.6c-.1,0,-.2,.1,-.5,.3c-.3,.3,-.6,.6,-.9,.8c-4.3,3.3,-9,7.1,-13.2,10.3c-.6,.5,-1.2,1,-1.9,1.5V119.5H28.9Z" class="g6_1"/>
<path fill-rule="evenodd" d="M120.1,157h50.8v-9.7H138.1v-4.7h25c.3,0,.5,-.1,.5,-.5v-8.5c0,-.3,-.2,-.4,-.5,-.4h-25v-4.4h31.3v-9.3H120.1Z" class="g6_1"/>
<path fill-rule="evenodd" d="M171.7,129.1h16.8V157h18.2V129.1h16.8v-9.6H171.7Z" class="g6_1"/>
<path fill-rule="evenodd" d="M91.8,157H110V119.5H91.8Z" class="g6_1"/>
<path fill-rule="evenodd" d="M121,176.2h3v-7.4c0,0,.1,0,.1,.1l2.5,5.6c.9,2,.1,1.7,3.8,1.7c.4,0,.5,-.1,.5,-.5V163.1h-3.1v7.1c-.1,0,-.1,-.1,-.1,-.1c0,0,0,-.1,0,-.1l-2.9,-6.9H121Z" class="g6_1"/>
<path fill-rule="evenodd" d="M202.9,176.2h3v-7.4l2.6,5.7c1,2,.1,1.7,3.9,1.7c.3,0,.4,-.1,.4,-.5V163.1h-3.1v7.1c0,0,-.1,-.1,-.1,-.1l-.3,-.7c-.2,-.5,-.2,-.6,-.4,-.9l-2.2,-5.4h-3.8Z" class="g6_1"/>
<path fill-rule="evenodd" d="M46.5,168.5c-1.2,.2,-1.5,.1,-2.9,.1v-2.2c1.1,0,3.9,-.3,2.9,2.1Zm-6.2,7.2c0,.7,1,.5,2.9,.5c.8,0,.4,-1.7,.4,-4h2.2c1,0,.8,3,1,4h3.4c0,-.6,-.2,-1.1,-.3,-1.6c0,-.6,.1,-1.2,0,-1.9c-.2,-2.2,0,-1.5,-.9,-2.8c.3,-.6,.6,-.5,.9,-1.3c.5,-1.4,.4,-3.5,-.4,-4.5c-.5,-.7,-1.6,-1,-2.7,-1H40.3Z" class="g6_1"/>
<path fill-rule="evenodd" d="M28.3,169.1c0,3.6,.8,7.4,5.3,7.4c2.4,0,2.9,-.9,3.6,-1.4l.3,1.1h1.4v-7.6h-4c-.8,0,-.5,1.1,-.5,3h1.2c-.1,2.2,-3.9,2.5,-3.9,-1.4c0,-5.9,3.5,-4.5,3.6,-2.7h3.6c-.2,-1.1,-.3,-2.3,-1.4,-3.3c-2.5,-2.3,-9.2,-2.4,-9.2,4.9Z" class="g6_1"/>
<path fill-rule="evenodd" d="M132.2,166.6c0,1.7,.2,3.4,2.2,4.1c1.7,.6,4,.3,4,1.7c0,1,-2.3,1.3,-2.5,-.3H132c.1,3.1,2.2,4.2,4.3,4.4h1.2c1.4,-.1,2.6,-.5,3.2,-.9c2.1,-1.6,2.4,-6.6,-.9,-7.5c-.8,-.2,-1.7,-.4,-2.3,-.5c-1.1,-.2,-1.9,-.2,-1.9,-1.2c0,-.7,2.4,-1.1,2.5,.5h3.8c0,-3.5,-2.7,-4.1,-5.5,-4.1c-2.5,0,-4.2,1.3,-4.2,3.8Z" class="g6_1"/>
<path fill-rule="evenodd" d="M214.1,166.6c0,1.7,.2,3.4,2.2,4.1c1.7,.6,4.1,.3,4.1,1.7c0,1,-2.4,1.3,-2.5,-.3h-4c.1,3.1,2.2,4.2,4.3,4.4h1.3c1.3,-.1,2.6,-.5,3.1,-.9c2.2,-1.6,2.4,-6.6,-.9,-7.5c-2.2,-.6,-4.2,-.5,-4.2,-1.7c0,-.7,2.4,-1.1,2.6,.5h3.7c0,-3.5,-2.7,-4.1,-5.5,-4.1c-2.5,0,-4.2,1.3,-4.2,3.8Z" class="g6_1"/>
<path fill-rule="evenodd" d="M95.3,173c-2.3,0,-2.1,-2.6,-2.1,-4c0,-3.7,4,-3.5,4,-.2c0,1.3,.1,4.2,-1.9,4.2Zm.1,3.5H95c-1.5,-.1,-3,-.7,-3.8,-1.7C89.8,173,89.8,171.1,89.8,169c0,-3.4,1.7,-6.2,5,-6.2c4.9,0,5.8,3.1,5.8,7.4c0,4.5,-2.6,6.2,-5.2,6.3Z" class="g6_1"/>
<path fill-rule="evenodd" d="M58.4,169.4c0,1.6,-.2,3.6,-2,3.6c-2.3,0,-2.4,-4,-1.6,-5.6c.2,-.5,.5,-.9,1,-1.1c1.8,-.6,2.6,1.1,2.6,3.1ZM57,176.5H56c-.6,-.1,-1.3,-.2,-2,-.5c-3.1,-1.2,-3,-4.9,-3,-7.5c0,-3.2,2,-5.7,5.2,-5.7c4.4,0,5.7,2.9,5.7,7.3c0,4,-2.2,6.1,-4.9,6.4Z" class="g6_1"/>
<path fill-rule="evenodd" d="M194.3,170.2v-1.1c0,-3.9,3.9,-3.8,3.9,-.1c0,1.5,.2,4,-2,4c-1.2,0,-1.9,-1.5,-1.9,-2.8Zm-3.4,-1.1c0,3.6,.8,7.4,5.3,7.4c1.7,0,3.2,-.6,4,-1.6c2.3,-2.7,2.7,-12.1,-3.7,-12.1c-3.8,0,-5.6,2.3,-5.6,6.3Z" class="g6_1"/>
<path fill-rule="evenodd" d="M166.2,169.9c0,3.3,.9,6.6,4.7,6.6c3.5,0,4.9,-2.4,4.9,-5.8v-7.6h-3.1v6.2c0,1.8,-.1,3.6,-1.8,3.6c-2,0,-1.4,-4.4,-1.4,-7.2c0,-3.1,.7,-2.6,-3.3,-2.6Z" class="g6_1"/>
<path fill-rule="evenodd" d="M63.1,171.2c0,3.4,2,5,4.1,5.3h1.2c1.4,-.2,2.8,-1,3.4,-2.3c1.2,-2.2,.9,-8.1,.9,-11.1H69.4c0,1.7,.2,7.7,-.3,8.9c-.4,1.2,-2.9,1.8,-2.9,-1.9v-7H63.1Z" class="g6_1"/>
<path fill-rule="evenodd" d="M80.2,168.5c-1.1,.2,-1.3,.1,-2.7,.1V166c2.9,0,2.9,-.1,2.9,1.7c0,.2,-.1,.7,-.2,.8Zm-6,7.2c0,.7,1,.5,2.9,.5c.3,0,.4,-.1,.4,-.5v-4.1c2.1,0,4.3,.3,5.5,-1.1c1.6,-2,1.4,-7.4,-2.6,-7.4H74.2Z" class="g6_1"/>
<path fill-rule="evenodd" d="M101.9,176.2H105v-4.9h4.1c0,-4.1,.9,-3.3,-4.1,-3.3v-1.6h4.9v-3.3h-8Z" class="g6_1"/>
<path fill-rule="evenodd" d="M142.5,166.4h3v9.8h3.1v-9.8h3v-3.3h-9.1Z" class="g6_1"/>
<path fill-rule="evenodd" d="M176.6,166.4h3v9.8h3.1v-9.8h3v-3.3h-9.1Z" class="g6_1"/>
<path fill-rule="evenodd" d="M156.3,163.6v2.8h3v9.3c0,.8,1.2,.5,3.2,.5v-9.3c0,-.7,1,-.5,2.9,-.5v-3.3h-8.6c-.4,0,-.5,.2,-.5,.5Z" class="g6_1"/>
<path fill-rule="evenodd" d="M186.5,176.2h3.1V163.1h-3.1Z" class="g6_1"/>
<path fill-rule="evenodd" d="M116.2,175.7c0,.4,.1,.5,.4,.5h2.7V163.1h-3.1Z" class="g6_1"/>
<path fill-rule="evenodd" d="M152.4,175.7c0,.4,.1,.5,.5,.5h2.6V163.1h-3.1Z" class="g6_1"/>
<path fill-rule="evenodd" d="M249.1,638.2H431.5v1.5H249.1Z" class="g2_1"/>
<path fill-rule="evenodd" d="M302.7,492.2c-1,-.6,-7.8,-8.5,-8.1,-11.4c-.6,-6.3,1.3,-11.1,8.1,-11.2c6.9,-.1,9,5,8.4,11.2c-.3,2.5,-6.5,10.4,-8.4,11.4ZM252.2,434.5l7.5,.1v12.2l-7.4,.3Zm44.7,-8.1c.3,-1.7,4.4,-5.6,5.9,-6.5l5.5,5.5c-1.7,4.3,2.1,-2.8,-.8,.9c-1.1,1.4,-.4,.7,-.6,4.9c-.6,.3,-3.4,.8,-3.9,1.7l5,.2c-1.3,1.1,-9.4,1,-10.9,.1c.3,0,1.7,-.1,2.3,-.1c2.8,-.2,1,.5,2.8,-.6c-1.2,-1,-2.2,-.6,-3.8,-1c-.4,-3.7,-.7,-3.7,1.4,-5.8c3.4,-3.2,3.4,-2,2.7,-3.1c-1.5,1.1,-2.7,4,-5.6,3.8ZM303,424c1,.5,.2,0,1,.7l2.5,1.8c-.5,-.9,0,-.1,-.7,-.9C303.3,422.2,304,422.9,303,424Zm-3.3,-51.7c.9,-2.3,3.9,-4.2,6.8,-1.8c1.6,1.3,1.1,2,2.1,3.4c.8,1.1,1.9,1.3,2.7,2.7c1.2,2.1,.2,1.9,1.7,3.8c.9,1,1.9,1.3,2.1,3.3c.3,3.1,-2.3,4.8,-5.3,5c-3.2,.2,-19.2,.3,-21.7,-.2c-6,-1.4,-5.4,-11.1,3.2,-10.1c-.6,-6,3.5,-7.6,8.4,-6.1Zm15.4,4.3c-1.1,-10.4,-8,-7.7,-9.5,-10.8c2.2,-2.5,8,2.5,8.8,3.5c.9,1.2,1.9,2.9,2.3,4.7c1.3,5.5,-.6,4.9,-.8,5c-1.3,-1.4,-.5,-.2,-.8,-2.4Zm-3.2,-13.1c-4.8,-2,-3.6,.2,-4.7,-2.3c1.7,-1.5,11.5,.8,14.1,10.9c1,4.1,.8,5.5,-1.3,6c-.7,-2.3,.3,-11,-8.1,-14.6Zm-10.6,40.2v13c-12.6,2.6,-12.4,18.7,0,21.1c0,16.4,1,11.6,-2.9,15.8c-6,-.1,-12.2,-1.4,-17.6,-3c-5.8,-1.8,-9.9,-4.3,-14.4,-6c4.5,-18.1,-16,-19.6,-19.8,-8.5c-1.7,5.1,.6,8.9,2.7,11.6c-5.3,9,-5.2,7.9,-8.4,8.6c-1.8,.3,-2.8,.9,-3.1,3c-.8,4.6,2.3,4.7,5.9,4.8c1.9,0,4.2,2.3,7.5,4.1c8.4,4.7,15.8,7.9,25.5,10.5c13.4,3.5,7.8,-.9,11.3,8.1c.6,1.4,2.1,3.9,2.9,4.8c7.5,8.7,25.9,5.1,27.2,-9.2c1.8,-20.8,-28.2,-23.5,-31,-4c-8.5,-1.4,-15.2,-3.3,-22.4,-6.2c-10.6,-4.2,-14,-7.7,-18.9,-10c.4,-5.5,-1.6,-3,1.4,-7.1c1.5,-2.2,3,-3.7,3.8,-6c7.9,1.9,8.3,2,13.6,-2.4c3.4,1.1,7.3,3.6,11.3,5c4.6,1.6,8.5,2.7,13.3,3.5c2.5,.4,5.1,.5,7.4,.8c3.2,.6,.8,-.3,2.3,1.5c.7,.9,.5,1.4,2.4,1.9c2.5,.7,4.7,-.6,5.2,-2.6c.9,-3.8,-2.4,-4.9,-2.8,-5.9v-13c5.5,-1.2,9.6,-4.3,9.5,-10.9c0,-4.4,-2.1,-7.5,-5.6,-9.2l-3.9,-1.6V402.6c13.5,-.5,24.6,-11.7,24.1,-26.1C327.3,362.8,316.3,351.9,302.2,352c-22.6,.1,-33,27.4,-18.1,43.2c1.4,1.5,4.8,3.8,7.4,5.1c4.2,1.9,4.6,1.4,7.6,2.1c3.3,.8,1.3,-.4,2.2,1.3Z" class="g7_1"/>
<path fill-rule="evenodd" d="M198.1,385c-.7,-1.9,.7,-3.6,2.5,-3.4c4.1,.2,1.3,4.6,.8,6.4c-.7,2.3,.9,1,-1.2,1.9c-.7,-.8,-.3,-.2,-.7,-1.5Zm-3.6,-2.8c-1.1,-4.7,12.9,-5,11.8,0c-1.7,.1,-2.7,-2.1,-6.2,-2c-3.1,.1,-3.8,2.2,-5.6,2Zm-2.2,-2.1c.5,-2.1,-.2,-1.2,1.4,-2.4c3.8,-3,13.6,-3.2,14.8,2.4c-3,-.5,-.6,.3,-2.3,-.9c-7.1,-5,-9.6,-.2,-13.9,.9Zm84,-46.3c5.5,-1,5.2,-2,6.9,-.2l3.2,5.7c.5,2.5,-1,2.5,-3.2,2.5c-2.9,0,-14.2,1.1,-11,-3.8c.9,-1.4,1.5,-.7,2.7,-1.9c0,0,1.3,-2.2,1.4,-2.3Zm79.8,-13.4c.9,3.2,-2.4,6.2,-1.1,9.5c1.7,1.8,2.1,.7,2.7,3.9h-7.1c.9,-4.6,3.4,-1.1,2.7,-7.2c-.4,-4.2,-3.2,-2.5,-.5,-6.6Zm-6.7,8.2c-5.7,-4,-4.1,-12.8,2.6,-14.7c7.5,-2,13.2,5.8,9.2,12.6c-.3,.5,-2.5,3.7,-3,1.2c-.4,-2.1,1.2,-1.1,1.9,-4c2.2,-8.2,-10.1,-11.5,-12,-3.3c-1.2,5.6,3.6,5.4,1.3,8.2Zm-1,4.4c-11.1,-5.3,-7.9,-24,6.5,-23.3c6,.2,10.6,4.7,11.6,10.2c.9,5.4,-3.3,13.9,-6.8,12.7c-2.2,-2,6.1,-3.5,4.7,-12.3c-1.9,-11.5,-17.8,-10.9,-20.2,-1.1c-2,7.8,4.1,11.2,4.9,12.3Zm-100,-26c-1.5,.6,-17.6,.9,-19.3,.3c-1.7,-.6,-1,-6.1,-1,-8.4c0,-6.9,-.9,-7.5,1.3,-8c1.4,1.9,.6,11.1,.6,14.2l18.4,.3Zm-10.1,-4.5c-.3,-2.2,-.2,-4.6,-.2,-6.9c0,-6.7,-1,-6.3,3.5,-6.2l-.2,13.3Zm5.4,-6.9c0,-2.6,5.5,-3.4,3.3,6.7q-1.6,.5,-3.2,-.1Zm-11.3,-.5c0,-1.8,1.5,-1.5,3.3,-1.3v8.7c-3.9,.5,-3.3,1.2,-3.3,-7.4Zm23,22.4c1.2,.8,1.2,.3,1.5,1.8c-.8,0,-.6,-.2,-.6,.6l.6,-.6c2.1,.7,11.1,9.7,13.8,11.9c-1.2,3.4,-3.2,6.5,-1.4,10.9c2.8,6.9,12,9,17.4,3.8c2.9,-2.8,3.1,-6,3,-11c8.7,-1.7,13.7,-3,23.1,-1c3.6,.8,6.7,1.8,9.8,3.2c3.3,1.6,5.6,3.5,8.3,4.8c-.4,7.6,.6,6.7,7.1,6.4c5.4,8.5,10.2,13.2,11.3,26.6c1.3,16.2,-3.8,21.2,-8,30.5c-7.9,-1.4,-7.8,5.4,-4.7,7.4c2,1.3,4.9,.6,5.8,-.9c1.5,-2.3,-.5,-2.8,1.8,-6.4c4.2,-6.5,7.3,-14.6,7.8,-24.1c1,-22.5,-12,-33.6,-12.7,-35.5c-2.1,-5.8,2.3,-5.8,4.6,-10.3c2.9,.9,13.3,6.9,21.6,-2.2c5.1,-5.5,6.1,-15.4,.2,-21.3c.6,-1.4,5.9,-7.6,6.7,-7.9c1.9,-.6,3.2,.4,4.8,-1.4c5,-5.6,-7.3,-11.9,-7.3,-2c0,2.8,-.8,2.6,-2.7,4.5c-1.6,1.6,-1.9,2.8,-3.7,4.2c-3.8,-2,-5.8,-3.6,-11.4,-3.1c-4.7,.5,-6.9,2.5,-9.7,4.3c-3.4,-2.5,-7.1,-3.6,-11.3,-5.5c-3.6,-1.6,-.6,-3,-4.1,-4.6c-5.1,-2.2,-8.5,4.4,-4.5,7.3c2.7,2,4.8,-.4,6.4,-.6c1.9,-.2,9.7,4.4,11.8,5.2c-1.7,3.5,-3.4,6.1,-3,11.2c.3,4.1,2.5,8.2,4.4,10c-.8,1.1,-4.8,6.4,-6.2,6.7c-1.2,.3,-2.5,.1,-3.3,-.3c-2.5,-1.2,-4.9,-4.1,-11.8,-6.6c-11.6,-4.2,-20,-4,-32.2,-1c-2.2,-1.5,-3,-3.8,-6.7,-4.7c-4.3,-1,-6.8,.7,-9.6,1.9c-3.4,-4.2,-11.8,-9,-12.5,-12.3l-2.1,-1.7c-1.7,-.8,-6,-5.4,-7.4,-6.9c8.6,-13.5,-1.8,-25.7,-13.3,-25.2c-13.4,.6,-19.1,15.9,-11,26.2l-4.7,6c-8.9,11.7,-14.5,22.1,-18.4,37c-.6,2.6,-3.3,18.5,-3.4,18.7c-4,2.7,-6.6,.8,-8.9,6.9c-2,5.2,-.2,8.7,2.5,11.6c6.4,6.8,17.1,2.3,18,-6.9l10.7,-.4c1.4,1.6,1.5,3.1,4.8,2.9c5.1,-.4,5.1,-7.9,0,-8.3c-3.2,-.3,-3.4,1.4,-4.8,3l-10.9,.3c-1.1,-6.7,-6.3,-7.5,-8.7,-8.9c1.1,-22.3,11.4,-44.1,25.7,-60.2c3.1,2,5.6,3.7,10.8,3.4c5.8,-.3,6.8,-2.6,10.3,-4.1c1.4,2,4.7,4.6,6.4,6.7Z" class="g8_1"/>
<path fill-rule="evenodd" d="M345.1,475.9c-2.9,4,-9.2,-.1,-6,-4.3c2.9,-3.8,8.8,.5,6,4.3Zm-6.8,-10.3c3.8,-4.9,16.1,6.7,12.2,12.4c-3.9,-.5,0,-7.3,-7.6,-10.2c-1.3,-.6,-1.7,-.3,-2.7,-.6c-3.1,-.9,-.7,.3,-1.9,-1.6Zm17.8,12.5c-2.1,-.3,-1.6,.2,-2.1,-1.7c-.3,-.9,-.3,-2.5,-.7,-3.9c-2.5,-9.1,-9.6,-9.1,-14.7,-10.5c.2,-2.6,1.2,-3,6.5,-1.3c5.9,2,12.8,10.5,11,17.4Zm3.6,-54.2c1.1,.7,1,.9,2,1.7L359.5,423c-1.6,2.1,-3,3.6,-5.1,3.5c.6,-2.3,3.5,-4.3,5.1,-5.9l5.3,5.2c-.5,1,-.8,.7,-1.1,1.9c-.3,1,-.2,2.1,-.2,3.3c-.4,.1,-2.8,.5,-3.5,1.4l4.5,.2c-1.5,1.1,-7.1,.6,-9.8,.6v-.7c3.2,0,3.4,.7,4.6,-1.2c-2.6,0,-2.4,.6,-3.6,-1c-.9,-2.6,1.8,-5.5,4,-6.4Zm9.6,-47.6c5.3,-.4,13.1,-.6,18.3,.1c.4,5.2,.5,13.2,-.1,18.3l-15.3,.2c-2.6,0,-3.2,-.5,-3.2,-3.2c0,-5.1,-.3,-10.2,.3,-15.4Zm21.1,-36.7c0,-3.8,1.8,-3.1,5.2,-3.2c3.2,0,5,-.4,5,3.2c0,3.6,-.2,4.2,-3.9,4.3c-2.1,0,-4.4,0,-6,-.5Zm7.3,-3.6c-.6,-.4,-1.8,-.3,-.7,-2.6c.4,-.9,1.1,-1.2,1.9,-1.2c2.6,-.3,2.4,1.3,2.5,3.6l-1.1,.2c-.1,-2.3,.4,-2,-1.5,-2.8c-1.4,1.2,-.9,.3,-1.1,2.8Zm-11.6,5.6c-1.2,1,-10.3,5.9,-11.6,5.8c-1.5,-.1,-4.8,-2.1,-6.6,.9c-2.1,3.2,0,4.7,1.3,6.5l4.3,.2c4.2,-6.3,.1,-4,5.4,-6.6c2.6,-1.3,5.8,-3.4,8.8,-4.2c1.9,4.1,5.2,4.4,10.9,4.9c3,11.7,4.8,20.1,4.5,33.4c-1.4,1.5,-2.1,1.3,-3.1,3.2l-6.1,-.4C393.1,372,378.5,364.6,368,373.4c-6.6,5.4,-7.8,16.4,-1.1,23.2c2.5,2.5,4.2,2.4,7,4.4c-1.1,5.4,-5.3,14.3,-8.2,17.6c-2.8,-1.2,-4.1,-2.1,-7.8,-1.5c-5.7,.8,-9.1,5.5,-8.8,11c.2,4,2,5.2,3.1,7.7l-7,5.4c-1.8,1.4,-5.8,4.8,-7.8,4.3c-3.8,-.8,-7.5,-.4,-6.4,4.8c1.1,5.2,3.5,-1.1,6.8,6.6l-3,2.8c-13,14.4,7.6,36.4,22.7,21.5c5.3,-5.2,5,-8.8,3.7,-17.3c2.6,-1,3.2,-2.1,6.1,-4.3c3.7,-2.8,7.5,-7,10.4,-10.3c5.3,-5.9,8.9,-10.5,13,-17.9c1.3,-2.3,2.4,-4.3,3.5,-6.8c2.6,-5.7,1.1,-2.1,5.4,-4.9c1.1,-3.6,.2,-7.6,-4.5,-6.9c-5.8,.9,-2.1,6.2,-2,7.8c.6,5.2,-15.3,25.3,-19.6,30c-2.4,2.7,-10,9.6,-13.4,11.5c-4,-6.6,-10.1,-8.4,-19.9,-6.4c-2.2,-3.1,-2.7,-6.3,.7,-8.4c.9,-.6,2,-1.3,3,-1.9c4.5,-3,7,-5.2,10.4,-8.5c6.1,1.9,9.7,1.7,13.4,-2.5c4.2,-4.7,2.7,-9.1,.2,-13.9c1.5,-3,3.5,-5.9,4.9,-9.1c1.5,-3.3,2.5,-6.8,4,-10.2c5.3,.1,8.3,-1,11.5,-3.7c4,-3.3,3.3,-4.4,5.6,-9.6c2.1,0,4.8,-.3,6.2,1c1.4,1.2,1.2,2.8,4.6,2.3c2.8,-.4,5.8,-4.4,.8,-8.1c-1.3,-20.8,.4,-13.6,-4.7,-34.8c2.7,-2.3,6,-3.8,6,-9.8c0,-5.1,-2.5,-8.2,-5.8,-9.7c-9.1,-4.1,-18.2,4.7,-14.9,12.8Z" class="g9_1"/>
<path fill-rule="evenodd" d="M205,432.5l11.3,.1c.3,3.8,-1.8,2.9,-5.3,2.9c-3.6,0,-6.1,1.1,-6,-3Zm-1.8,-15.9c2,-1.1,13,-1.1,15,0c.6,1.9,.3,4.9,.3,7.2c0,9.4,.7,8.1,-7.5,8.1c-1.9,0,-6.4,.7,-7.6,-.5c-1,-1.1,-.7,-13.1,-.2,-14.8Zm1.9,-3.5c2,-.9,4.6,-.6,7,-.6c3,0,4.6,-.3,4.1,3.1H205.3Zm49.6,-7.5c-.5,-2.6,-.7,-3.3,.8,-4.5c1.8,.6,1.2,-.8,1.4,2.3c1.7,.6,5.8,.3,7.8,.3l.9,-1.4c.9,-1.3,-.5,-.5,1.3,-1.1c1.3,1.2,1.3,1.5,.8,4.6c-3.1,.3,-10.4,.8,-13,-.2Zm3.2,-7.4c3.6,-3.4,-.4,-5.2,3,-5.2c3.6,0,1.6,1.4,2.4,4.5c1.6,.2,.7,0,1.3,.7l-3.5,4.2c-.9,-1.3,-1.9,-2.9,-3.6,-3.9c.1,-.1,.3,-.2,.4,-.3ZM241.5,349.8c.4,1.3,.2,.8,.2,2.2c0,4.5,1.1,.9,1.3,5.7l-6.1,.1c.1,-1.5,0,-1.3,.5,-2.7c.2,-.5,.9,-1.5,.9,-1.5c.3,-1.3,-.5,-1.5,.1,-4Zm-2.8,4.3c1.7,.5,.9,.5,2.6,-.2Zm-13.6,.1c-1.6,-.6,-2.9,.2,-3.1,-2.1c-.2,-1.8,.8,-2.3,2,-2.7c2.5,.2,1.6,3.6,1.6,3.6c-.1,1.6,3.5,4.8,0,4.8c-5.7,0,-5.2,.2,-4.1,-3.3c.1,-.1,.3,-.1,.5,-.1Zm6,-12.3c-.7,-.5,-1.7,-.3,-1,-2.6c.3,-1.2,.6,-1,1.5,-1.6c1.8,.5,2.5,1.1,2,2.9c-.6,2.4,.1,.5,-1,1.3l1.8,1.4c.7,1.3,.4,1.4,.4,2.7l-5.8,.1c-.4,-4.3,1.6,-3.5,1.7,-4.1c.1,-.1,.3,0,.4,-.1Zm1,.7c1.7,-.3,-.9,-.3,-1,-.3c-.7,.8,1,.3,1,.3Zm24.2,-22.7c0,-.8,-.2,-.6,.6,-.6c-.3,-1.5,-.3,-1,-1.5,-1.8c-3.3,3.5,-7,5.3,-13.3,13c-1.4,1.6,-2.5,3.9,-4,5.1c-25.7,-7.9,-29.2,29.8,-6.5,30.2c3.4,0,6.6,-1,8.9,-2.6c1.4,-1,2.3,-1.7,3.3,-2.7c1.4,-1.6,1.2,-2.2,2.5,-3.6c10.9,3.7,8,1.8,9.9,5.9c1.6,3.5,-.4,2.5,-1.2,11.1c-.7,6.8,.1,11.1,1.2,17.4c-4.1,1.8,-6.7,6.9,-5.1,12.8l-26,12.1c-2.4,-2,-2.4,-4.3,-8,-6.7c-12.4,-5.2,-26.5,7.5,-20.2,21.3c6.9,14.9,34,11.1,28.9,-12.7l26.6,-12c6.7,12.3,26.1,.1,17.2,-12.2c-1.7,-2.4,-4.5,-3.7,-7.6,-3.9l-2.5,-.2c-.2,-.1,-.4,-.1,-.5,-.1c-.1,-.1,-.3,-.1,-.4,-.2C256.7,383.9,257,372,259,366.4c.8,-2.2,.2,-1.2,2.2,-2.1c4.7,-2.4,2.5,-8.7,-2.3,-7.8c-3.3,.6,-.9,2,-5.8,.2c-2.1,-.8,-4.5,-1.5,-6,-2.4c1.7,-10,-1.9,-12.7,-6.3,-17.4c2.8,-6.1,10.6,-12.4,15.5,-17Z" class="g9_1"/>
<path fill-rule="evenodd" d="M234.1,514.4c1.9,3.3,9.3,3.3,12.9,3.8c23.4,3.4,88.4,3.3,111.9,-.1c2.6,-.4,5,-.6,7,-1.1c5.8,-1.3,4.6,-1.1,5.5,-2.6c-.9,-1.5,-.5,-1.2,-2.8,-1.9c-9.8,-3.3,-43.9,-4.3,-53.4,-4.3c-19,0,-50.7,-.2,-69.2,2.5c-4.8,.7,-10.4,.7,-11.9,3.7Z" class="ga_1"/>
<path fill-rule="evenodd" d="M271.7,280.4c0,-3.2,.8,-3.7,3.9,-3.7c4.9,0,10.3,-.6,13.5,1c.9,3,.9,8.7,-.4,11.5l-3.3,.4c-15.8,1,-13.7,-.5,-13.7,-9.2Zm55.7,7.2c-1.2,-2,-5.1,-6.1,-5.5,-8.4c-1.8,-10.2,14.9,-8.6,11.8,.7ZM276.7,275.7c0,-10.7,7,-5.8,7.5,-4.9c.4,.6,.6,1.8,.5,2.6c0,2.8,.2,1.5,-1,2.3c-1.7,-1.2,-.4,-1.7,-1.3,-4.3c-1.2,-.7,-3,-1.3,-3.8,.6c-1.3,3.3,1.6,3.2,-1.9,3.7Zm-19,40l2.1,1.7c5.3,-2.5,8.6,-6.3,20.2,-9.8c3.6,-1.2,2,.9,5.4,1.1c2.3,.2,4.1,-1.4,4.4,-3.3c.8,-5.4,-3.3,-2.7,-4.5,-7c-.2,-.8,-.4,-2.3,-.6,-3.3c9.9,-2.4,10.4,-10.7,11.3,-16.6c5.3,-.3,16.3,-.4,21.1,1.1c1,14.9,19.3,14,21.1,2.2c2,-13,-16.1,-17.7,-20.7,-4.7c-7.7,-.8,-13.8,-1.3,-21.8,-.9c-1.9,-2.6,-3,-9,-11.8,-11.1c-7.4,-1.9,-13.5,1.9,-16.3,5.8c-3.7,5.1,-4.2,12.1,-.7,17.7c3.3,5.4,6.9,6.9,15.5,7.3c1.4,5.3,1.4,4.2,.4,5.8c-3.3,5.4,.4,1.3,-9.6,5.6c-6.5,2.8,-10.3,5.2,-15.5,8.4Z" class="g9_1"/>
<path fill-rule="evenodd" d="M299.7,372.3c-4.9,-1.5,-9,.1,-8.4,6.1c-8.6,-1,-9.2,8.7,-3.2,10.1c2.5,.5,18.5,.4,21.7,.2c3,-.2,5.6,-1.9,5.3,-5c-.2,-2,-1.2,-2.3,-2.1,-3.3c-1.5,-1.9,-.5,-1.7,-1.7,-3.8c-.8,-1.4,-1.9,-1.6,-2.7,-2.7c-1,-1.4,-.5,-2.1,-2.1,-3.4c-2.9,-2.4,-5.9,-.5,-6.8,1.8Z" class="g6_1"/>
<path fill-rule="evenodd" d="M373.3,386.4h3.5c2.5,7.7,-8.2,5.5,-3.5,0Zm-1.4,-3.9c.1,0,0,-1.9,4.2,-.1c1,.5,2.3,1.3,2.9,2c1.3,1.4,3.4,5.1,1.9,7.5c-2,-1.2,-.6,-.5,-1.4,-3.1c-1,-3.3,-3.5,-4.4,-5.7,-5.1c-3,-.9,-.3,.2,-1.9,-1.2Zm-.1,-3.9c5.1,-2.6,14.6,5.8,13.5,12c-.2,1.4,.1,.7,-.7,1.4c-2.2,-2.1,-.1,-10.1,-10.4,-12c-3.1,-.6,-1.6,.7,-2.4,-1.4Zm-2.5,-2.3c-.6,5.2,-.3,10.3,-.3,15.4c0,2.7,.6,3.2,3.2,3.2l15.3,-.2c.6,-5.1,.5,-13.1,.1,-18.3c-5.2,-.7,-13,-.5,-18.3,-.1Z" class="g6_1"/>
<path fill-rule="evenodd" d="M280.5,286.8c-1.2,-1.7,-.3,-1.2,-.9,-2.9c-.4,-1.2,-.7,-.5,-1.2,-2.4c1.3,-2.6,2,-2.3,4.3,-1.2c.1,3,-.3,2,-1,3.7c-.9,2.4,.6,1.6,-1.2,2.8Zm-8.8,-6.4c0,8.7,-2.1,10.2,13.7,9.2l3.3,-.4c1.3,-2.8,1.3,-8.5,.4,-11.5c-3.2,-1.6,-8.6,-1,-13.5,-1c-3.1,0,-3.9,.5,-3.9,3.7Z" class="g6_1"/>
<path fill-rule="evenodd" d="M303.3,480l6,-.1c-.3,3.2,-1.1,3,-2.8,5.1c-1.3,1.6,-1.6,2.3,-3.1,3.8Zm-6.8,-1.1c-.5,-5.2,1.3,-6.3,5.9,-7.4l-.3,7.5Zm6.2,13.3c1.9,-1,8.1,-8.9,8.4,-11.4c.6,-6.2,-1.5,-11.3,-8.4,-11.2c-6.8,.1,-8.7,4.9,-8.1,11.2c.3,2.9,7.1,10.8,8.1,11.4Z" class="g6_1"/>
<path fill-rule="evenodd" d="M348.4,333l.7,-1.5c-.8,-1.1,-6.9,-4.5,-4.9,-12.3c2.4,-9.8,18.3,-10.4,20.2,1.1c1.4,8.8,-6.9,10.3,-4.7,12.3c3.5,1.2,7.7,-7.3,6.8,-12.7c-1,-5.5,-5.6,-10,-11.6,-10.2c-14.4,-.7,-17.6,18,-6.5,23.3Z" class="g6_1"/>
<path fill-rule="evenodd" d="M205,419.4c0,-1.5,.1,-1.6,1.6,-1.6c7.8,0,9.8,-.9,9.8,1.6c0,7.8,1,10.3,-1.6,10.3c-12.1,0,-9.8,2.4,-9.8,-10.3Zm-1.8,-2.8c-.5,1.7,-.8,13.7,.2,14.8c1.2,1.2,5.7,.5,7.6,.5c8.2,0,7.5,1.3,7.5,-8.1c0,-2.3,.3,-5.3,-.3,-7.2c-2,-1.1,-13,-1.1,-15,0Z" class="g6_1"/>
<path fill-rule="evenodd" d="M206,422.7c1.2,-1.6,2.6,-2.3,5,-2.3c3.7,.1,4.2,1.4,4.5,2.8c-1.6,-.6,-2.2,-1.5,-4,-1.7c-3.6,-.3,-3.8,1.1,-3.8,1.1c1.2,-.2,2.3,-.7,3.8,-.5c1.9,.2,2.1,.7,3,1.7l-1.1,.9c-4.3,3.3,.5,.5,-2.4,2.9c-1.7,-.7,-.3,.3,-1.6,-1.2c-.4,-.5,-.7,-1,-1.1,-1.6c.8,-.5,1.4,-.8,2.6,-.8c2.7,0,.4,.9,2.4,-.3c-3.1,-.8,-3,-.9,-5.6,.6l-.9,-.9c0,0,-.8,-.7,-.8,-.7Zm5.7,2.2c-2.8,.2,-1.9,.4,-2.3,1Zm-4.8,-2.4l.4,.3c0,0,-.1,0,-.1,-.1c0,-.1,-.2,-.3,-.3,-.2ZM205,419.4c0,12.7,-2.3,10.3,9.8,10.3c2.6,0,1.6,-2.5,1.6,-10.3c0,-2.5,-2,-1.6,-9.8,-1.6c-1.5,0,-1.6,.1,-1.6,1.6Z" class="g9_1"/>
<path fill-rule="evenodd" d="M326.7,276c2.6,-1.8,5.1,2.4,2.7,4c-1.1,.7,-2.6,.5,-3.4,-.6c-1.7,-2.4,.6,-3.3,.7,-3.4Zm.7,11.6l6.3,-7.7c3.1,-9.3,-13.6,-10.9,-11.8,-.7c.4,2.3,4.3,6.4,5.5,8.4Z" class="g6_1"/>
<path fill-rule="evenodd" d="M276.3,333.8c-.1,.1,-1.4,2.3,-1.4,2.3c-1.2,1.2,-1.8,.5,-2.7,1.9c-3.2,4.9,8.1,3.8,11,3.8c2.2,0,3.7,0,3.2,-2.5l-3.2,-5.7c-1.7,-1.8,-1.4,-.8,-6.9,.2Z" class="g6_1"/>
<path fill-rule="evenodd" d="M303,424c1,-1.1,.3,-1.8,2.8,1.6c.7,.8,.2,0,.7,.9L304,424.7c-.8,-.7,0,-.2,-1,-.7Zm-6.1,2.4c2.9,.2,4.1,-2.7,5.6,-3.8c.7,1.1,.7,-.1,-2.7,3.1c-2.1,2.1,-1.8,2.1,-1.4,5.8c1.6,.4,2.6,0,3.8,1c-1.8,1.1,0,.4,-2.8,.6c-.6,0,-2,.1,-2.3,.1c1.5,.9,9.6,1,10.9,-.1l-5,-.2c.5,-.9,3.3,-1.4,3.9,-1.7c.2,-4.2,-.5,-3.5,.6,-4.9c2.9,-3.7,-.9,3.4,.8,-.9l-5.5,-5.5c-1.5,.9,-5.6,4.8,-5.9,6.5Z" class="g6_1"/>
<path fill-rule="evenodd" d="M359.7,423.9c-2.2,.9,-4.9,3.8,-4,6.4c1.2,1.6,1,1,3.6,1c-1.2,1.9,-1.4,1.2,-4.6,1.2v.7c2.7,0,8.3,.5,9.8,-.6l-4.5,-.2c.7,-.9,3.1,-1.3,3.5,-1.4c0,-1.2,-.1,-2.3,.2,-3.3c.3,-1.2,.6,-.9,1.1,-1.9l-5.3,-5.2c-1.6,1.6,-4.5,3.6,-5.1,5.9c2.1,.1,3.5,-1.4,5.1,-3.5l2.2,2.6c-1,-.8,-.9,-1,-2,-1.7Z" class="g6_1"/>
<path fill-rule="evenodd" d="M349.4,328.6c2.3,-2.8,-2.5,-2.6,-1.3,-8.2c1.9,-8.2,14.2,-4.9,12,3.3c-.7,2.9,-2.3,1.9,-1.9,4c.5,2.5,2.7,-.7,3,-1.2c4,-6.8,-1.7,-14.6,-9.2,-12.6c-6.7,1.9,-8.3,10.7,-2.6,14.7Z" class="g6_1"/>
<path fill-rule="evenodd" d="M248.4,307v-1.6L230,305.1c0,-3.1,.8,-12.3,-.6,-14.2c-2.2,.5,-1.3,1.1,-1.3,8c0,2.3,-.7,7.8,1,8.4c1.7,.6,17.8,.3,19.3,-.3Z" class="g6_1"/>
<path fill-rule="evenodd" d="M395.6,342.1c-3.5,-4.5,2.8,-6.5,0,0Zm-5.2,-2.5l.3,3.8c1.6,.5,3.9,.5,6,.5c3.7,-.1,3.9,-.7,3.9,-4.3c0,-3.6,-1.8,-3.2,-5,-3.2c-3.4,.1,-5.2,-.6,-5.2,3.2Z" class="g6_1"/>
<path fill-rule="evenodd" d="M354,476.4c.5,1.9,0,1.4,2.1,1.7c1.8,-6.9,-5.1,-15.4,-11,-17.4c-5.3,-1.7,-6.3,-1.3,-6.5,1.3c5.1,1.4,12.2,1.4,14.7,10.5c.4,1.4,.4,3,.7,3.9Z" class="g6_1"/>
<path fill-rule="evenodd" d="M253,444.1l5.6,.1l.3,-2v-4.3l-.1,-2.2l-5.8,.1Z" class="g7_1"/>
<path fill-rule="evenodd" d="M350.5,478c3.9,-5.7,-8.4,-17.3,-12.2,-12.4c1.2,1.9,-1.2,.7,1.9,1.6c1,.3,1.4,0,2.7,.6c7.6,2.9,3.7,9.7,7.6,10.2Z" class="g6_1"/>
<path fill-rule="evenodd" d="M350.6,333.8h7.1c-.6,-3.2,-1,-2.1,-2.7,-3.9c-1.3,-3.3,2,-6.3,1.1,-9.5l-3.3,-.4c-2.7,4.1,.1,2.4,.5,6.6c.7,6.1,-1.8,2.6,-2.7,7.2Z" class="g6_1"/>
<path fill-rule="evenodd" d="M307.2,361.2c1.1,2.5,-.1,.3,4.7,2.3c8.4,3.6,7.4,12.3,8.1,14.6c2.1,-.5,2.3,-1.9,1.3,-6C318.7,362,308.9,359.7,307.2,361.2Z" class="g6_1"/>
<path fill-rule="evenodd" d="M238.3,302.5l3.1,.2l.2,-13.3c-4.5,-.1,-3.5,-.5,-3.5,6.2c0,2.3,-.1,4.7,.2,6.9Z" class="g6_1"/>
<path fill-rule="evenodd" d="M345.1,475.9c2.8,-3.8,-3.1,-8.1,-6,-4.3c-3.2,4.2,3.1,8.3,6,4.3Z" class="g6_1"/>
<path fill-rule="evenodd" d="M253,435.8l5.8,-.1l.1,2.2v4.3l-.3,2l-5.6,-.1Zm-.7,11.3l7.4,-.3V434.6l-7.5,-.1Z" class="g6_1"/>
<path fill-rule="evenodd" d="M254.7,405.6c2.6,1,9.9,.5,13,.2c.5,-3.1,.5,-3.4,-.8,-4.6c-1.8,.6,-.4,-.2,-1.3,1.1l-.9,1.4c-2,0,-6.1,.3,-7.8,-.3c-.2,-3.1,.4,-1.7,-1.4,-2.3c-1.5,1.2,-1.3,1.9,-.8,4.5Z" class="g6_1"/>
<path fill-rule="evenodd" d="M296.5,478.9l5.6,.1l.3,-7.5c-4.6,1.1,-6.4,2.2,-5.9,7.4Z" class="g7_1"/>
<path fill-rule="evenodd" d="M257.5,398.5c1.7,1,2.7,2.6,3.6,3.9l3.5,-4.2c-.6,-.7,.3,-.5,-1.3,-.7c-.8,-3.1,1.2,-4.5,-2.4,-4.5c-3.4,0,.6,1.8,-3,5.2c-.1,.1,-.3,.2,-.4,.3Z" class="g6_1"/>
<path fill-rule="evenodd" d="M305.6,365.8c1.5,3.1,8.4,.4,9.5,10.8c.3,2.2,-.5,1,.8,2.4c.2,-.1,2.1,.5,.8,-5c-.4,-1.8,-1.4,-3.5,-2.3,-4.7c-.8,-1,-6.6,-6,-8.8,-3.5Z" class="g6_1"/>
<path fill-rule="evenodd" d="M241.3,353.9c-1.7,.7,-.9,.7,-2.6,.2Zm-2.9,-4.3c-.6,2.5,.2,2.7,-.1,4c0,0,-.7,1,-.9,1.5c-.5,1.4,-.4,1.2,-.5,2.7l6.1,-.1c-.2,-4.8,-1.3,-1.2,-1.3,-5.7c0,-1.4,.2,-.9,-.2,-2.2Z" class="g6_1"/>
<path fill-rule="evenodd" d="M225.1,354.2l-3.1,.2c-.2,0,-.4,0,-.5,.1c-1.1,3.5,-1.6,3.3,4.1,3.3c3.5,0,-.1,-3.2,0,-4.8c0,0,.9,-3.4,-1.6,-3.6c-1.2,.4,-2.2,.9,-2,2.7c.2,2.3,1.5,1.5,3.1,2.1Z" class="g6_1"/>
<path fill-rule="evenodd" d="M385.3,390.6c1.1,-6.2,-8.4,-14.6,-13.5,-12c.8,2.1,-.7,.8,2.4,1.4c10.3,1.9,8.2,9.9,10.4,12c.8,-.7,.5,0,.7,-1.4Z" class="g9_1"/>
<path fill-rule="evenodd" d="M231.1,342.3c.1,0,2.7,0,1,.3c0,0,-1.7,.5,-1,-.3Zm0,-.4c-.1,.1,-.3,0,-.4,.1c-.1,.6,-2.1,-.2,-1.7,4.1l5.8,-.1c0,-1.3,.3,-1.4,-.4,-2.7l-1.8,-1.4c1.1,-.8,.4,1.1,1,-1.3c.5,-1.8,-.2,-2.4,-2,-2.9c-.9,.6,-1.2,.4,-1.5,1.6c-.7,2.3,.3,2.1,1,2.6Z" class="g6_1"/>
<path fill-rule="evenodd" d="M216.2,415.6c.5,-3.4,-1.1,-3.1,-4.1,-3.1c-2.4,0,-5,-.3,-7,.6l.2,2.5Z" class="g6_1"/>
<path fill-rule="evenodd" d="M211,435.5c3.5,0,5.6,.9,5.3,-2.9L205,432.5c-.1,4.1,2.4,3,6,3Z" class="g6_1"/>
<path fill-rule="evenodd" d="M303.4,488.8c1.5,-1.5,1.8,-2.2,3.1,-3.8c1.7,-2.1,2.5,-1.9,2.8,-5.1l-6,.1Z" class="g7_1"/>
<path fill-rule="evenodd" d="M211.7,424.9l-2.3,1c.4,-.6,-.5,-.8,2.3,-1Zm-4.8,-2.4c.1,-.1,.3,.1,.3,.2c0,.1,.1,.1,.1,.1Zm-.9,.2c0,0,.8,.7,.8,.7l.9,.9c2.6,-1.5,2.5,-1.4,5.6,-.6c-2,1.2,.3,.3,-2.4,.3c-1.2,0,-1.8,.3,-2.6,.8c.4,.6,.7,1.1,1.1,1.6c1.3,1.5,-.1,.5,1.6,1.2c2.9,-2.4,-1.9,.4,2.4,-2.9l1.1,-.9c-.9,-1,-1.1,-1.5,-3,-1.7c-1.5,-.2,-2.6,.3,-3.8,.5c0,0,.2,-1.4,3.8,-1.1c1.8,.2,2.4,1.1,4,1.7c-.3,-1.4,-.8,-2.7,-4.5,-2.8c-2.4,0,-3.8,.7,-5,2.3Z" class="g6_1"/>
<path fill-rule="evenodd" d="M232.4,295.1c0,8.6,-.6,7.9,3.3,7.4v-8.7c-1.8,-.2,-3.3,-.5,-3.3,1.3Z" class="g6_1"/>
<path fill-rule="evenodd" d="M243.7,295.6l.1,6.6q1.6,.6,3.2,.1c2.2,-10.1,-3.3,-9.3,-3.3,-6.7Z" class="g6_1"/>
<path fill-rule="evenodd" d="M192.3,380.1c4.3,-1.1,6.8,-5.9,13.9,-.9c1.7,1.2,-.7,.4,2.3,.9c-1.2,-5.6,-11,-5.4,-14.8,-2.4c-1.6,1.2,-.9,.3,-1.4,2.4Z" class="g6_1"/>
<path fill-rule="evenodd" d="M200.2,389.9c2.1,-.9,.5,.4,1.2,-1.9c.5,-1.8,3.3,-6.2,-.8,-6.4c-1.8,-.2,-3.2,1.5,-2.5,3.4l1.4,3.4c.4,1.3,0,.7,.7,1.5Z" class="g6_1"/>
<path fill-rule="evenodd" d="M276.7,275.7c3.5,-.5,.6,-.4,1.9,-3.7c.8,-1.9,2.6,-1.3,3.8,-.6c.9,2.6,-.4,3.1,1.3,4.3c1.2,-.8,1,.5,1,-2.3c.1,-.8,-.1,-2,-.5,-2.6c-.5,-.9,-7.5,-5.8,-7.5,4.9Z" class="g6_1"/>
<path fill-rule="evenodd" d="M376.1,382.4c-4.2,-1.8,-4.1,.1,-4.2,.1c1.6,1.4,-1.1,.3,1.9,1.2c2.2,.7,4.7,1.8,5.7,5.1c.8,2.6,-.6,1.9,1.4,3.1c1.5,-2.4,-.6,-6.1,-1.9,-7.5c-.6,-.7,-1.9,-1.5,-2.9,-2Z" class="g9_1"/>
<path fill-rule="evenodd" d="M194.5,382.2c1.8,.2,2.5,-1.9,5.6,-2c3.5,-.1,4.5,2.1,6.2,2c1.1,-5,-12.9,-4.7,-11.8,0Z" class="g6_1"/>
<path fill-rule="evenodd" d="M373.3,386.4c-4.7,5.5,6,7.7,3.5,0Z" class="g9_1"/>
<path fill-rule="evenodd" d="M278.4,281.5c.5,1.9,.8,1.2,1.2,2.4c.6,1.7,-.3,1.2,.9,2.9c1.8,-1.2,.3,-.4,1.2,-2.8c.7,-1.7,1.1,-.7,1,-3.7c-2.3,-1.1,-3,-1.4,-4.3,1.2Z" class="g9_1"/>
<path fill-rule="evenodd" d="M326.7,276c-.1,.1,-2.4,1,-.7,3.4c.8,1.1,2.3,1.3,3.4,.6c2.4,-1.6,-.1,-5.8,-2.7,-4Z" class="g9_1"/>
<path fill-rule="evenodd" d="M397.7,336c.2,-2.5,-.3,-1.6,1.1,-2.8c1.9,.8,1.4,.5,1.5,2.8l1.1,-.2c-.1,-2.3,.1,-3.9,-2.5,-3.6c-.8,0,-1.5,.3,-1.9,1.2c-1.1,2.3,.1,2.2,.7,2.6Z" class="g6_1"/>
<path fill-rule="evenodd" d="M395.6,342.1c2.8,-6.5,-3.5,-4.5,0,0Z" class="g9_1"/>
</svg>