<?xml version="1.0" encoding="UTF-8" standalone="no"?>
<!DOCTYPE svg PUBLIC "-//W3C//DTD SVG 1.1//EN"
"http://www.w3.org/Graphics/SVG/1.1/DTD/svg11.dtd">
<svg viewBox="0 0 909 1286" version="1.1" xmlns="http://www.w3.org/2000/svg" xmlns:xlink="http://www.w3.org/1999/xlink">
<defs>
<clipPath id="c0_8"><path d="M0,1286.2V0H909.4V1286.2Z"/></clipPath>
<style type="text/css"><![CDATA[
.g0_8{
fill: #FFFFFF;
}
.g1_8{
fill: #D1D3D4;
}
.g2_8{
fill: #0A364A;
}
.g3_8{
fill: none;
stroke: #D1D3D4;
stroke-width: 21.653;
stroke-linecap: butt;
stroke-linejoin: miter;
stroke-miterlimit: 22;
}
.g4_8{
fill: none;
stroke: #D1D3D4;
stroke-width: 19.322;
stroke-linecap: butt;
stroke-linejoin: miter;
stroke-miterlimit: 22;
}
.g5_8{
fill: #BBBDC0;
}
]]></style>
</defs>
<path fill-rule="evenodd" d="M0,0H909.4V1286.2H0Z" class="g0_8"/>
<g clip-path="url(#c0_8)">
<path fill-rule="evenodd" d="M124.1,-59.3h938V88.8h-938Z" class="g1_8"/>
<path fill-rule="evenodd" d="M-29.3,-11h64V1297.3h-64Z" class="g2_8"/>
<path d="M157.7,-170.4c90.3,0,163.4,73.2,163.4,163.5c0,90.2,-73.1,163.4,-163.4,163.4C67.4,156.5,-5.7,83.3,-5.7,-6.9c0,-90.3,73.1,-163.5,163.4,-163.5Z" class="g3_8"/>
<path fill-rule="evenodd" d="M157.7,-170.4c90.3,0,163.4,73.2,163.4,163.5c0,90.2,-73.1,163.3,-163.4,163.3C67.4,156.4,-5.7,83.3,-5.7,-6.9c0,-90.3,73.1,-163.5,163.4,-163.5Z" class="g2_8"/>
<path d="M157.7,-152.8c80.5,0,145.9,65.3,145.9,145.9c0,80.4,-65.4,145.7,-145.9,145.7C77.1,138.8,11.8,73.5,11.8,-6.9c0,-80.6,65.3,-145.9,145.9,-145.9Z" class="g4_8"/>
<path fill-rule="evenodd" d="M157.7,-152.8c80.5,0,145.8,65.3,145.8,145.9c0,80.4,-65.3,145.7,-145.8,145.7C77.1,138.8,11.8,73.5,11.8,-6.9c0,-80.6,65.3,-145.9,145.9,-145.9Z" class="g2_8"/>
</g>
<image preserveAspectRatio="none" x="44" y="28" width="61" height="55" xlink:href="img/1.png"/>
<path fill-rule="evenodd" d="M103.4,61.9H119V53.5c0,-.5,2.7,-2,3.2,-2.3c1.2,-.7,2.2,-1.6,3.4,-2.2l2.4,2.8c.3,.2,.4,.4,.6,.7l7.3,8.9c.7,.8,1.6,.5,3.5,.5h16.2c-.4,-.5,-.7,-.9,-1.1,-1.3l-2.8,-3.3c-.3,-.2,-.4,-.3,-.6,-.6l-4.6,-5.1c-1,-1.3,-3.6,-3.9,-4.6,-5.1c-.7,-1,-4.1,-4.5,-4.5,-5.2c.4,-.1,6.5,-4.4,7.3,-5l7.2,-5c.5,-.4,1.8,-1.2,2.1,-1.6H133.2c-.1,.1,-.2,.1,-.5,.3c-.3,.2,-.5,.4,-.8,.7c-3.6,2.8,-7.6,6.1,-11.2,8.8c-.6,.4,-1.1,.9,-1.7,1.3V29.7H103.4Z" class="g0_8"/>
<path fill-rule="evenodd" d="M181.5,61.9h43.6V53.5H197v-4h21.4c.3,0,.4,-.1,.4,-.4V41.8c0,-.3,-.1,-.4,-.4,-.4H197V37.7h26.8v-8H181.5Z" class="g0_8"/>
<path fill-rule="evenodd" d="M225.8,37.9h14.4v24h15.6v-24h14.4V29.7H225.8Z" class="g0_8"/>
<path fill-rule="evenodd" d="M157.3,61.9h15.6V29.7H157.3Z" class="g0_8"/>
<path fill-rule="evenodd" d="M182.3,78.3h2.6V72l2.2,4.8c.8,1.7,.1,1.5,3.3,1.5c.3,0,.4,-.1,.4,-.4V67.1h-2.7v6.1q0,-.1,0,-.1c0,0,-.1,-.1,-.1,-.1l-2.4,-5.9h-3.3Z" class="g0_8"/>
<path fill-rule="evenodd" d="M252.5,78.3h2.6V72l2.2,4.8c.8,1.7,.1,1.5,3.3,1.5c.3,0,.4,-.1,.4,-.4V67.1h-2.7v6.1q0,-.1,0,-.1l-.3,-.7c-.2,-.3,-.2,-.4,-.4,-.7l-1.8,-4.6h-3.3Z" class="g0_8"/>
<path fill-rule="evenodd" d="M118.5,71.7c-1,.2,-1.3,.1,-2.4,.1V69.9c.9,0,3.3,-.2,2.4,1.8Zm-5.3,6.2c0,.6,.9,.4,2.4,.4c.7,0,.5,-1.5,.5,-3.4h1.8c.8,0,.6,2.5,.8,3.4h3c0,-.5,-.2,-1,-.3,-1.4c0,-.5,.1,-1,0,-1.6c-.2,-1.9,0,-1.3,-.8,-2.4c.3,-.5,.5,-.5,.8,-1.1c.4,-1.2,.4,-3,-.3,-3.9c-.5,-.6,-1.4,-.8,-2.4,-.8h-5.5Z" class="g0_8"/>
<path fill-rule="evenodd" d="M102.9,72.2c0,3.1,.7,6.3,4.5,6.3c2.1,0,2.5,-.7,3.1,-1.2l.3,1H112V71.8h-3.5c-.6,0,-.4,.9,-.4,2.6h1.1c-.2,1.9,-3.4,2.1,-3.4,-1.2c0,-5.1,3,-3.9,3.1,-2.3H112c-.2,-1,-.3,-2,-1.3,-2.9c-2.1,-2,-7.8,-2,-7.8,4.2Z" class="g0_8"/>
<path fill-rule="evenodd" d="M191.9,70.1c0,1.5,.2,2.8,1.9,3.5c1.4,.5,3.5,.2,3.5,1.4c0,.9,-2.1,1.1,-2.2,-.2h-3.3c0,2.7,1.8,3.6,3.6,3.7h1.1c1.2,0,2.2,-.4,2.7,-.7c1.8,-1.4,2,-5.6,-.8,-6.4c-.6,-.2,-1.4,-.4,-2,-.5c-.9,-.2,-1.6,-.2,-1.6,-1c0,-.6,2.1,-1,2.2,.4h3.2c0,-3,-2.3,-3.5,-4.7,-3.5c-2.1,0,-3.6,1.1,-3.6,3.3Z" class="g0_8"/>
<path fill-rule="evenodd" d="M262.1,70.1c0,1.5,.2,2.8,1.9,3.5c1.4,.5,3.5,.2,3.5,1.4c0,.9,-2.1,1.1,-2.2,-.2h-3.4c.1,2.7,1.9,3.6,3.7,3.7h1.1c1.2,0,2.2,-.4,2.7,-.7c1.8,-1.4,2,-5.6,-.8,-6.4c-1.9,-.6,-3.6,-.5,-3.6,-1.5c0,-.6,2.1,-1,2.2,.4h3.2c0,-3,-2.3,-3.5,-4.7,-3.5c-2.2,0,-3.6,1.1,-3.6,3.3Z" class="g0_8"/>
<path fill-rule="evenodd" d="M160.3,75.6c-1.9,0,-1.8,-2.3,-1.8,-3.5c0,-3.2,3.4,-3,3.4,-.1c0,1.1,.1,3.6,-1.6,3.6Zm.1,2.9h-.3c-1.4,0,-2.7,-.6,-3.3,-1.4c-1.2,-1.5,-1.2,-3.2,-1.2,-5c0,-2.9,1.5,-5.3,4.3,-5.3c4.2,0,5,2.7,5,6.4c0,3.8,-2.3,5.3,-4.5,5.3Z" class="g0_8"/>
<path fill-rule="evenodd" d="M128.7,72.5c0,1.3,-.2,3.1,-1.8,3.1c-1.9,0,-1.9,-3.4,-1.3,-4.9c.2,-.4,.5,-.7,.8,-.9c1.6,-.5,2.3,1,2.3,2.7Zm-1.2,6h-.8c-.6,0,-1.2,-.1,-1.8,-.4c-2.6,-1,-2.5,-4.2,-2.5,-6.4c0,-2.8,1.6,-4.9,4.4,-4.9c3.8,0,4.8,2.5,4.8,6.2c0,3.5,-1.8,5.3,-4.1,5.5Z" class="g0_8"/>
<path fill-rule="evenodd" d="M245.1,73.2v-1c0,-3.4,3.4,-3.2,3.4,-.1c0,1.3,.2,3.5,-1.7,3.5c-1.1,0,-1.7,-1.3,-1.7,-2.4Zm-2.9,-1c0,3.1,.7,6.3,4.6,6.3c1.4,0,2.7,-.5,3.4,-1.3c2,-2.4,2.3,-10.4,-3.2,-10.4c-3.2,0,-4.8,2,-4.8,5.4Z" class="g0_8"/>
<path fill-rule="evenodd" d="M221.1,72.9c0,2.8,.7,5.6,4,5.6c3,0,4.2,-2,4.2,-4.9V67.1h-2.7v5.3c0,1.5,-.1,3,-1.5,3c-1.7,0,-1.2,-3.7,-1.2,-6.1c0,-2.7,.6,-2.2,-2.8,-2.2Z" class="g0_8"/>
<path fill-rule="evenodd" d="M132.7,74c0,2.9,1.7,4.3,3.5,4.5h1c1.3,-.1,2.5,-.8,3,-1.9c1,-1.9,.7,-7,.7,-9.5h-2.8c0,1.5,.2,6.5,-.2,7.6c-.4,1,-2.5,1.6,-2.5,-1.7V67.1h-2.7Z" class="g0_8"/>
<path fill-rule="evenodd" d="M147.4,71.7c-1,.2,-1.1,.1,-2.3,.1V69.5c2.5,0,2.4,0,2.4,1.5c0,.2,-.1,.6,-.1,.7Zm-5.1,6.2c0,.6,.8,.4,2.4,.4c.3,0,.4,-.1,.4,-.4V74.4c1.7,0,3.7,.2,4.7,-1c1.4,-1.7,1.2,-6.3,-2.3,-6.3h-5.2Z" class="g0_8"/>
<path fill-rule="evenodd" d="M165.9,78.3h2.7V74.1h3.5c0,-3.5,.8,-2.8,-3.5,-2.8V69.9h4.2V67.1h-6.9Z" class="g0_8"/>
<path fill-rule="evenodd" d="M200.8,69.9h2.5v8.4H206V69.9h2.6V67.1h-7.8Z" class="g0_8"/>
<path fill-rule="evenodd" d="M229.9,69.9h2.6v8.4h2.7V69.9h2.5V67.1h-7.8Z" class="g0_8"/>
<path fill-rule="evenodd" d="M212.6,67.5v2.4h2.6v8c0,.6,.9,.4,2.6,.4v-8c0,-.6,.9,-.4,2.6,-.4V67.1H213c-.3,0,-.4,.1,-.4,.4Z" class="g0_8"/>
<path fill-rule="evenodd" d="M238.4,78.3h2.7V67.1h-2.7Z" class="g0_8"/>
<path fill-rule="evenodd" d="M178.2,77.9c0,.3,.1,.4,.4,.4h2.3V67.1h-2.7Z" class="g0_8"/>
<path fill-rule="evenodd" d="M209.2,77.9c0,.3,.1,.4,.4,.4h2.3V67.1h-2.7Z" class="g0_8"/>
<image preserveAspectRatio="none" x="312" y="1005" width="285" height="190" xlink:href="img/2.png"/>
<path fill-rule="evenodd" d="M289.1,1216.5H620.4v5H289.1Z" class="g5_8"/>
</svg>